<svg width="633" height="325" viewBox="0 0 633 325" fill="none" xmlns="http://www.w3.org/2000/svg">
<rect width="632.5" height="324" transform="translate(0 0.0500488)" fill="#DEF6E7"/>
<path d="M60.9912 34.2473H62.2148L67.2803 41.5002V34.2473H68.627V44.05H67.4307L62.3516 36.8108V44.05H60.9912V34.2473ZM73.6992 37.0774C74.3509 37.0774 74.9456 37.2346 75.4834 37.5491C76.0212 37.859 76.445 38.2874 76.7549 38.8342C77.0693 39.3811 77.2266 39.9849 77.2266 40.6458C77.2266 41.6438 76.8848 42.4846 76.2012 43.1682C75.5221 43.8472 74.6882 44.1868 73.6992 44.1868C73.0475 44.1868 72.4505 44.0318 71.9082 43.7219C71.3704 43.412 70.9466 42.9859 70.6367 42.4436C70.3268 41.9013 70.1719 41.302 70.1719 40.6458C70.1719 39.6386 70.5114 38.7932 71.1904 38.1096C71.8695 37.4215 72.7057 37.0774 73.6992 37.0774ZM73.6992 38.3079C73.0566 38.3079 72.5166 38.5312 72.0791 38.9778C71.6462 39.4244 71.4297 39.9804 71.4297 40.6458C71.4297 41.2974 71.6462 41.8466 72.0791 42.2932C72.5166 42.7353 73.0566 42.9563 73.6992 42.9563C74.3372 42.9563 74.875 42.733 75.3125 42.2864C75.75 41.8398 75.9688 41.2929 75.9688 40.6458C75.9688 39.9804 75.75 39.4244 75.3125 38.9778C74.875 38.5312 74.3372 38.3079 73.6992 38.3079ZM82.1826 37.0774C83.0348 37.0774 83.7139 37.3577 84.2197 37.9182C84.7301 38.4742 84.9854 39.217 84.9854 40.1467V44.05H83.6934V40.3245C83.6934 39.7229 83.5293 39.2444 83.2012 38.8889C82.873 38.5289 82.4355 38.3489 81.8887 38.3489C81.4922 38.3489 81.1185 38.4491 80.7676 38.6497C80.4167 38.8456 80.1478 39.1099 79.9609 39.4426V44.05H78.6553V37.2209H79.9609V38.2122C80.1706 37.8704 80.4782 37.5969 80.8838 37.3918C81.2894 37.1822 81.7223 37.0774 82.1826 37.0774ZM93.8789 34.2473C94.7402 34.2473 95.458 34.5253 96.0322 35.0813C96.6064 35.6327 96.8936 36.3254 96.8936 37.1594C96.8936 37.9934 96.6064 38.6907 96.0322 39.2512C95.458 39.8072 94.7402 40.0852 93.8789 40.0852H91.4727V44.05H90.1123V34.2473H93.8789ZM93.8789 38.8C94.3483 38.8 94.7425 38.6428 95.0615 38.3284C95.3851 38.0094 95.5469 37.6197 95.5469 37.1594C95.5469 36.6991 95.3851 36.314 95.0615 36.0042C94.7425 35.6943 94.3483 35.5393 93.8789 35.5393H91.4727V38.8H93.8789ZM101.234 37.0774C101.471 37.0774 101.722 37.1139 101.986 37.1868L101.918 38.4104C101.681 38.3238 101.424 38.2805 101.146 38.2805C100.849 38.2805 100.539 38.3922 100.216 38.6155C99.8968 38.8342 99.6393 39.1282 99.4434 39.4973V44.05H98.1377V37.2209H99.4434V38.2122C99.6302 37.8749 99.8923 37.6015 100.229 37.3918C100.567 37.1822 100.902 37.0774 101.234 37.0774ZM105.814 37.0774C106.466 37.0774 107.061 37.2346 107.599 37.5491C108.136 37.859 108.56 38.2874 108.87 38.8342C109.185 39.3811 109.342 39.9849 109.342 40.6458C109.342 41.6438 109 42.4846 108.316 43.1682C107.637 43.8472 106.803 44.1868 105.814 44.1868C105.163 44.1868 104.566 44.0318 104.023 43.7219C103.486 43.412 103.062 42.9859 102.752 42.4436C102.442 41.9013 102.287 41.302 102.287 40.6458C102.287 39.6386 102.627 38.7932 103.306 38.1096C103.985 37.4215 104.821 37.0774 105.814 37.0774ZM105.814 38.3079C105.172 38.3079 104.632 38.5312 104.194 38.9778C103.761 39.4244 103.545 39.9804 103.545 40.6458C103.545 41.2974 103.761 41.8466 104.194 42.2932C104.632 42.7353 105.172 42.9563 105.814 42.9563C106.452 42.9563 106.99 42.733 107.428 42.2864C107.865 41.8398 108.084 41.2929 108.084 40.6458C108.084 39.9804 107.865 39.4244 107.428 38.9778C106.99 38.5312 106.452 38.3079 105.814 38.3079ZM113.908 35.177C113.516 35.177 113.195 35.3023 112.944 35.553C112.694 35.8036 112.568 36.1477 112.568 36.5852V37.2209H114.414V38.4514H112.568V44.05H111.276V38.4514H109.95V37.2209H111.276V36.5305C111.276 35.733 111.502 35.1064 111.953 34.6506C112.409 34.1949 113.006 33.967 113.744 33.967C114.004 33.967 114.25 34.0149 114.482 34.1106L114.414 35.2454C114.264 35.1998 114.095 35.177 113.908 35.177ZM116.403 34.1516C116.636 34.1516 116.839 34.2382 117.012 34.4114C117.185 34.5846 117.271 34.7874 117.271 35.0198C117.271 35.2568 117.185 35.4618 117.012 35.635C116.839 35.8036 116.636 35.8879 116.403 35.8879C116.162 35.8879 115.957 35.8036 115.788 35.635C115.619 35.4664 115.535 35.2613 115.535 35.0198C115.535 34.7874 115.619 34.5846 115.788 34.4114C115.961 34.2382 116.166 34.1516 116.403 34.1516ZM115.747 37.2209H117.053V44.05H115.747V37.2209ZM122.59 42.8606L122.658 43.9954C122.439 44.0865 122.193 44.1321 121.92 44.1321C121.182 44.1321 120.585 43.9088 120.129 43.4622C119.678 43.011 119.452 42.3866 119.452 41.5891V38.4514H118.126V37.2209H119.452V35.3684H120.744V37.2209H122.59V38.4514H120.744V41.5276C120.744 41.9605 120.869 42.3023 121.12 42.553C121.371 42.8036 121.692 42.929 122.084 42.929C122.271 42.929 122.439 42.9062 122.59 42.8606Z" fill="black"/>
<path d="M541.972 43.093C541.256 43.8222 540.356 44.1868 539.271 44.1868C538.187 44.1868 537.285 43.8222 536.564 43.093C535.849 42.3639 535.491 41.4501 535.491 40.3518V34.2473H536.852V40.3518C536.852 41.0764 537.079 41.678 537.535 42.1565C537.995 42.635 538.574 42.8743 539.271 42.8743C539.969 42.8743 540.548 42.635 541.008 42.1565C541.468 41.678 541.698 41.0764 541.698 40.3518V34.2473H543.052V40.3518C543.052 41.4501 542.692 42.3639 541.972 43.093ZM545.034 34.2473H546.395V44.05H545.034V34.2473ZM547.502 44.05L551.815 34.2473H553.203L548.89 44.05H547.502ZM560.784 43.093C560.069 43.8222 559.169 44.1868 558.084 44.1868C556.999 44.1868 556.097 43.8222 555.377 43.093C554.661 42.3639 554.304 41.4501 554.304 40.3518V34.2473H555.664V40.3518C555.664 41.0764 555.892 41.678 556.348 42.1565C556.808 42.635 557.387 42.8743 558.084 42.8743C558.781 42.8743 559.36 42.635 559.82 42.1565C560.281 41.678 560.511 41.0764 560.511 40.3518V34.2473H561.864V40.3518C561.864 41.4501 561.504 42.3639 560.784 43.093ZM571.298 44.05H569.705L567.128 40.1741L564.551 44.05H562.985L566.342 38.9983L563.19 34.2473H564.804L567.142 37.7747L569.493 34.2473H571.072L567.941 38.9709L571.298 44.05Z" fill="black"/>
<path d="M70.625 79.6438C72.6875 79.6438 74.3958 80.2948 75.75 81.5969C77.1146 82.899 77.7969 84.5344 77.7969 86.5032C77.7969 88.5032 77.1146 90.1542 75.75 91.4563C74.3958 92.7584 72.6875 93.4094 70.625 93.4094H65.7969V102.05H62.0469V79.6438H70.625ZM70.625 89.8313C71.5938 89.8313 72.401 89.5136 73.0469 88.8782C73.6927 88.2428 74.0156 87.4511 74.0156 86.5032C74.0156 85.5761 73.6927 84.8 73.0469 84.175C72.401 83.55 71.5938 83.2375 70.625 83.2375H65.7969V89.8313H70.625ZM80.7969 79.6438H94.0156V83.2375H84.5469V88.5188H92.9844V92.0969H84.5469V98.4719H94.0156V102.05H80.7969V79.6438ZM113.766 79.6438V83.2375H106.891V102.05H103.156V83.2375H96.2656V79.6438H113.766ZM128.344 102.05L126.609 97.5657H117.141L115.375 102.05H111.406L120.344 79.6438H123.484L132.406 102.05H128.344ZM118.516 93.9875H125.203L121.875 85.4094L118.516 93.9875ZM134.734 79.6438H138.484V102.05H134.734V79.6438ZM144.719 102.363C144.031 102.363 143.448 102.128 142.969 101.659C142.5 101.191 142.266 100.618 142.266 99.9407C142.266 99.2532 142.5 98.675 142.969 98.2063C143.448 97.7375 144.031 97.5032 144.719 97.5032C145.417 97.5032 146 97.7375 146.469 98.2063C146.948 98.675 147.188 99.2532 147.188 99.9407C147.188 100.618 146.948 101.191 146.469 101.659C146 102.128 145.417 102.363 144.719 102.363ZM154.656 80.8313C156.396 79.8313 158.328 79.3313 160.453 79.3313C162.578 79.3313 164.505 79.8313 166.234 80.8313C167.974 81.8313 169.339 83.2115 170.328 84.9719C171.318 86.7219 171.812 88.6698 171.812 90.8157C171.812 92.9719 171.318 94.9355 170.328 96.7063C169.339 98.4667 167.974 99.8521 166.234 100.863C164.505 101.863 162.578 102.363 160.453 102.363C158.328 102.363 156.396 101.863 154.656 100.863C152.917 99.8521 151.547 98.4667 150.547 96.7063C149.557 94.9355 149.062 92.9719 149.062 90.8157C149.062 88.6698 149.557 86.7219 150.547 84.9719C151.547 83.2115 152.917 81.8313 154.656 80.8313ZM160.453 82.9719C158.318 82.9719 156.531 83.7219 155.094 85.2219C153.656 86.7219 152.938 88.5865 152.938 90.8157C152.938 93.0553 153.656 94.9355 155.094 96.4563C156.531 97.9667 158.318 98.7219 160.453 98.7219C162.578 98.7219 164.359 97.9667 165.797 96.4563C167.245 94.9355 167.969 93.0553 167.969 90.8157C167.969 88.5865 167.245 86.7219 165.797 85.2219C164.359 83.7219 162.578 82.9719 160.453 82.9719ZM192.297 102.05H187.75L182.188 93.0657H178.891V102.05H175.141V79.6438H183.562C185.448 79.6438 187.062 80.2896 188.406 81.5813C189.76 82.8625 190.438 84.4355 190.438 86.3C190.438 87.8417 190.057 89.175 189.297 90.3C188.547 91.4146 187.51 92.1959 186.188 92.6438L192.297 102.05ZM178.891 83.2688V89.4719H183.438C184.365 89.4719 185.13 89.175 185.734 88.5813C186.349 87.9771 186.656 87.2167 186.656 86.3C186.656 85.4146 186.349 84.6907 185.734 84.1282C185.13 83.5553 184.365 83.2688 183.438 83.2688H178.891ZM204.266 92.8938V89.3157H213.359V98.1438C212.339 99.4667 211.031 100.498 209.438 101.238C207.844 101.967 206.068 102.331 204.109 102.331C202.005 102.331 200.089 101.821 198.359 100.8C196.63 99.7792 195.271 98.3834 194.281 96.6125C193.302 94.8417 192.812 92.8886 192.812 90.7532C192.812 88.6178 193.302 86.6803 194.281 84.9407C195.26 83.1907 196.609 81.8209 198.328 80.8313C200.057 79.8313 201.974 79.3313 204.078 79.3313C206.286 79.3313 208.26 79.8469 210 80.8782C211.75 81.9094 212.922 83.248 213.516 84.8938L210.188 86.5344C209.688 85.4511 208.891 84.5865 207.797 83.9407C206.714 83.2948 205.474 82.9719 204.078 82.9719C201.922 82.9719 200.151 83.7011 198.766 85.1594C197.38 86.6073 196.688 88.4719 196.688 90.7532C196.688 93.0657 197.385 94.9719 198.781 96.4719C200.188 97.9719 201.964 98.7219 204.109 98.7219C206.359 98.7219 208.193 98.1125 209.609 96.8938V92.8938H204.266Z" fill="black"/>
<path d="M64.7578 127.247C65.6191 127.247 66.3369 127.525 66.9111 128.081C67.4854 128.633 67.7725 129.325 67.7725 130.159C67.7725 130.993 67.4854 131.691 66.9111 132.251C66.3369 132.807 65.6191 133.085 64.7578 133.085H62.3516V137.05H60.9912V127.247H64.7578ZM64.7578 131.8C65.2272 131.8 65.6214 131.643 65.9404 131.328C66.264 131.009 66.4258 130.62 66.4258 130.159C66.4258 129.699 66.264 129.314 65.9404 129.004C65.6214 128.694 65.2272 128.539 64.7578 128.539H62.3516V131.8H64.7578ZM69.2354 127.247H74.8682V128.539H70.5957V131.226H74.4033V132.511H70.5957V135.765H74.8682V137.05H69.2354V127.247ZM83.5361 127.247V128.539H80.4326V137.05H79.0723V128.539H75.9619V127.247H83.5361ZM90.1191 137.05L89.2646 134.883H84.8691L84.0146 137.05H82.5928L86.4961 127.247H87.6582L91.5889 137.05H90.1191ZM85.3887 133.591H88.7656L87.084 129.291L85.3887 133.591ZM92.7373 127.247H94.0977V137.05H92.7373V127.247ZM102.745 130.077C103.593 130.077 104.272 130.358 104.782 130.918C105.293 131.474 105.548 132.217 105.548 133.147V137.05H104.256V133.324C104.256 132.727 104.09 132.249 103.757 131.889C103.429 131.529 102.993 131.349 102.451 131.349C102.055 131.349 101.686 131.447 101.344 131.643C101.002 131.834 100.729 132.096 100.523 132.429V137.05H99.2178V127.247H100.523V131.198C100.751 130.861 101.063 130.59 101.46 130.385C101.861 130.18 102.289 130.077 102.745 130.077ZM112.589 130.221H113.895V137.05H112.589V136.059C112.397 136.382 112.088 136.651 111.659 136.865C111.231 137.08 110.78 137.187 110.306 137.187C109.686 137.187 109.121 137.032 108.61 136.722C108.1 136.407 107.699 135.979 107.407 135.437C107.12 134.89 106.977 134.288 106.977 133.632C106.977 132.976 107.12 132.377 107.407 131.834C107.699 131.287 108.1 130.859 108.61 130.549C109.121 130.235 109.686 130.077 110.306 130.077C110.784 130.077 111.238 130.187 111.666 130.406C112.099 130.62 112.407 130.889 112.589 131.212V130.221ZM110.559 135.97C110.978 135.97 111.374 135.865 111.748 135.656C112.126 135.441 112.407 135.168 112.589 134.835V132.443C112.407 132.105 112.126 131.83 111.748 131.615C111.374 131.401 110.978 131.294 110.559 131.294C109.898 131.294 109.344 131.517 108.897 131.964C108.455 132.406 108.234 132.962 108.234 133.632C108.234 134.297 108.455 134.853 108.897 135.3C109.344 135.747 109.898 135.97 110.559 135.97ZM118.058 137.187C117.524 137.187 116.998 137.098 116.479 136.92C115.964 136.742 115.542 136.505 115.214 136.209L115.747 135.245C116.011 135.501 116.36 135.71 116.793 135.874C117.226 136.034 117.643 136.114 118.044 136.114C118.436 136.114 118.755 136.027 119.001 135.854C119.252 135.676 119.377 135.455 119.377 135.191C119.377 134.986 119.304 134.815 119.158 134.678C119.012 134.541 118.823 134.436 118.591 134.364C118.358 134.286 118.101 134.218 117.818 134.158C117.54 134.095 117.26 134.019 116.978 133.933C116.7 133.842 116.444 133.732 116.212 133.605C115.979 133.473 115.79 133.286 115.645 133.044C115.499 132.798 115.426 132.504 115.426 132.162C115.426 131.543 115.665 131.041 116.144 130.658C116.622 130.271 117.246 130.077 118.017 130.077C118.495 130.077 118.955 130.153 119.397 130.303C119.844 130.453 120.211 130.668 120.498 130.946L119.938 131.923C119.701 131.691 119.384 131.508 118.987 131.376C118.591 131.24 118.226 131.171 117.894 131.171C117.538 131.171 117.253 131.253 117.039 131.417C116.825 131.577 116.718 131.789 116.718 132.053C116.718 132.24 116.791 132.397 116.937 132.525C117.082 132.648 117.271 132.748 117.504 132.825C117.736 132.898 117.992 132.969 118.27 133.037C118.552 133.101 118.835 133.183 119.117 133.283C119.4 133.379 119.657 133.498 119.89 133.639C120.122 133.78 120.311 133.978 120.457 134.234C120.603 134.489 120.676 134.792 120.676 135.143C120.676 135.735 120.432 136.225 119.944 136.613C119.457 136.995 118.828 137.187 118.058 137.187ZM130.567 130.221H131.873V137.05H130.567V136.059C130.376 136.382 130.066 136.651 129.638 136.865C129.209 137.08 128.758 137.187 128.284 137.187C127.664 137.187 127.099 137.032 126.589 136.722C126.078 136.407 125.677 135.979 125.386 135.437C125.099 134.89 124.955 134.288 124.955 133.632C124.955 132.976 125.099 132.377 125.386 131.834C125.677 131.287 126.078 130.859 126.589 130.549C127.099 130.235 127.664 130.077 128.284 130.077C128.763 130.077 129.216 130.187 129.645 130.406C130.077 130.62 130.385 130.889 130.567 131.212V130.221ZM128.537 135.97C128.956 135.97 129.353 135.865 129.727 135.656C130.105 135.441 130.385 135.168 130.567 134.835V132.443C130.385 132.105 130.105 131.83 129.727 131.615C129.353 131.401 128.956 131.294 128.537 131.294C127.876 131.294 127.323 131.517 126.876 131.964C126.434 132.406 126.213 132.962 126.213 133.632C126.213 134.297 126.434 134.853 126.876 135.3C127.323 135.747 127.876 135.97 128.537 135.97ZM138.189 127.247V137.05H136.884V127.247H138.189ZM142.975 130.077C143.626 130.077 144.221 130.235 144.759 130.549C145.297 130.859 145.72 131.287 146.03 131.834C146.345 132.381 146.502 132.985 146.502 133.646C146.502 134.644 146.16 135.485 145.477 136.168C144.798 136.847 143.964 137.187 142.975 137.187C142.323 137.187 141.726 137.032 141.184 136.722C140.646 136.412 140.222 135.986 139.912 135.444C139.602 134.901 139.447 134.302 139.447 133.646C139.447 132.639 139.787 131.793 140.466 131.11C141.145 130.421 141.981 130.077 142.975 130.077ZM142.975 131.308C142.332 131.308 141.792 131.531 141.354 131.978C140.922 132.424 140.705 132.98 140.705 133.646C140.705 134.297 140.922 134.847 141.354 135.293C141.792 135.735 142.332 135.956 142.975 135.956C143.613 135.956 144.15 135.733 144.588 135.286C145.025 134.84 145.244 134.293 145.244 133.646C145.244 132.98 145.025 132.424 144.588 131.978C144.15 131.531 143.613 131.308 142.975 131.308ZM151.458 130.077C152.31 130.077 152.989 130.358 153.495 130.918C154.006 131.474 154.261 132.217 154.261 133.147V137.05H152.969V133.324C152.969 132.723 152.805 132.244 152.477 131.889C152.148 131.529 151.711 131.349 151.164 131.349C150.768 131.349 150.394 131.449 150.043 131.65C149.692 131.846 149.423 132.11 149.236 132.443V137.05H147.931V130.221H149.236V131.212C149.446 130.87 149.754 130.597 150.159 130.392C150.565 130.182 150.998 130.077 151.458 130.077ZM161.315 130.221H162.621V136.811C162.621 137.74 162.309 138.49 161.685 139.06C161.06 139.634 160.26 139.921 159.285 139.921C158.67 139.921 158.08 139.816 157.515 139.607C156.95 139.397 156.523 139.115 156.236 138.759L156.893 137.877C157.152 138.155 157.49 138.372 157.904 138.527C158.324 138.682 158.775 138.759 159.258 138.759C159.85 138.759 160.34 138.574 160.728 138.205C161.119 137.836 161.315 137.367 161.315 136.797V135.956C161.124 136.275 160.812 136.54 160.379 136.749C159.951 136.959 159.502 137.064 159.032 137.064C158.412 137.064 157.847 136.911 157.337 136.606C156.826 136.296 156.425 135.874 156.134 135.341C155.847 134.803 155.703 134.211 155.703 133.564C155.703 133.081 155.787 132.625 155.956 132.197C156.129 131.764 156.362 131.392 156.653 131.082C156.95 130.772 157.303 130.529 157.713 130.351C158.128 130.169 158.567 130.077 159.032 130.077C159.511 130.077 159.964 130.184 160.393 130.399C160.826 130.608 161.133 130.875 161.315 131.198V130.221ZM159.285 135.861C159.704 135.861 160.101 135.758 160.475 135.553C160.853 135.343 161.133 135.077 161.315 134.753V132.402C161.133 132.073 160.853 131.805 160.475 131.595C160.101 131.385 159.704 131.281 159.285 131.281C158.624 131.281 158.071 131.497 157.624 131.93C157.182 132.363 156.961 132.907 156.961 133.564C156.961 134.22 157.182 134.767 157.624 135.204C158.071 135.642 158.624 135.861 159.285 135.861ZM163.858 134.042V132.839H167.81V134.042H163.858ZM172.574 135.861L172.643 136.995C172.424 137.087 172.178 137.132 171.904 137.132C171.166 137.132 170.569 136.909 170.113 136.462C169.662 136.011 169.437 135.387 169.437 134.589V131.451H168.11V130.221H169.437V128.368H170.729V130.221H172.574V131.451H170.729V134.528C170.729 134.961 170.854 135.302 171.104 135.553C171.355 135.804 171.676 135.929 172.068 135.929C172.255 135.929 172.424 135.906 172.574 135.861ZM179.937 133.338C179.937 133.466 179.927 133.643 179.909 133.871H174.447C174.507 134.528 174.743 135.052 175.158 135.444C175.577 135.831 176.102 136.025 176.73 136.025C177.163 136.025 177.56 135.934 177.92 135.751C178.28 135.569 178.547 135.325 178.72 135.02L179.752 135.69C179.492 136.155 179.091 136.521 178.549 136.79C178.007 137.055 177.387 137.187 176.689 137.187C176.211 137.187 175.755 137.096 175.322 136.913C174.889 136.731 174.516 136.483 174.201 136.168C173.891 135.849 173.645 135.469 173.463 135.027C173.281 134.58 173.189 134.106 173.189 133.605C173.189 132.958 173.342 132.365 173.647 131.827C173.953 131.285 174.372 130.859 174.905 130.549C175.443 130.235 176.033 130.077 176.676 130.077C177.592 130.077 178.364 130.392 178.993 131.021C179.622 131.65 179.937 132.422 179.937 133.338ZM174.502 132.894H178.604C178.562 132.383 178.357 131.966 177.988 131.643C177.619 131.319 177.163 131.157 176.621 131.157C176.083 131.157 175.625 131.315 175.247 131.629C174.869 131.944 174.62 132.365 174.502 132.894ZM184.455 130.077C184.692 130.077 184.943 130.114 185.207 130.187L185.139 131.41C184.902 131.324 184.644 131.281 184.366 131.281C184.07 131.281 183.76 131.392 183.437 131.615C183.118 131.834 182.86 132.128 182.664 132.497V137.05H181.358V130.221H182.664V131.212C182.851 130.875 183.113 130.601 183.45 130.392C183.787 130.182 184.122 130.077 184.455 130.077ZM194.354 130.077C195.192 130.077 195.867 130.335 196.377 130.85C196.887 131.365 197.143 132.055 197.143 132.921V137.05H195.851V133.147C195.851 132.573 195.698 132.119 195.393 131.786C195.087 131.449 194.673 131.281 194.148 131.281C193.802 131.281 193.463 131.385 193.13 131.595C192.802 131.8 192.547 132.055 192.364 132.361C192.392 132.475 192.412 132.609 192.426 132.764V137.05H191.134V133.147C191.134 132.577 190.979 132.124 190.669 131.786C190.364 131.449 189.958 131.281 189.452 131.281C189.074 131.281 188.732 131.378 188.427 131.574C188.121 131.766 187.887 132.023 187.723 132.347V137.05H186.417V130.221H187.723V131.185C187.928 130.884 188.208 130.624 188.563 130.406C188.924 130.187 189.356 130.077 189.862 130.077C190.879 130.077 191.601 130.483 192.029 131.294C192.289 130.948 192.619 130.658 193.021 130.426C193.426 130.194 193.87 130.077 194.354 130.077ZM208.456 135.368C208.187 135.924 207.775 136.366 207.219 136.695C206.667 137.023 206.043 137.187 205.346 137.187C204.689 137.187 204.09 137.032 203.548 136.722C203.006 136.412 202.579 135.986 202.27 135.444C201.96 134.901 201.805 134.302 201.805 133.646C201.805 132.985 201.96 132.381 202.27 131.834C202.579 131.287 203.006 130.859 203.548 130.549C204.09 130.235 204.689 130.077 205.346 130.077C206.002 130.077 206.59 130.23 207.109 130.535C207.633 130.836 208.016 131.24 208.258 131.745L207.15 132.347C207.009 132.032 206.774 131.782 206.446 131.595C206.123 131.404 205.756 131.308 205.346 131.308C204.699 131.308 204.156 131.533 203.719 131.985C203.281 132.431 203.062 132.985 203.062 133.646C203.062 134.297 203.281 134.847 203.719 135.293C204.156 135.735 204.699 135.956 205.346 135.956C205.788 135.956 206.184 135.858 206.535 135.662C206.886 135.466 207.148 135.195 207.321 134.849L208.456 135.368ZM212.865 130.077C213.517 130.077 214.112 130.235 214.649 130.549C215.187 130.859 215.611 131.287 215.921 131.834C216.235 132.381 216.393 132.985 216.393 133.646C216.393 134.644 216.051 135.485 215.367 136.168C214.688 136.847 213.854 137.187 212.865 137.187C212.214 137.187 211.617 137.032 211.074 136.722C210.536 136.412 210.113 135.986 209.803 135.444C209.493 134.901 209.338 134.302 209.338 133.646C209.338 132.639 209.677 131.793 210.356 131.11C211.035 130.421 211.872 130.077 212.865 130.077ZM212.865 131.308C212.223 131.308 211.683 131.531 211.245 131.978C210.812 132.424 210.596 132.98 210.596 133.646C210.596 134.297 210.812 134.847 211.245 135.293C211.683 135.735 212.223 135.956 212.865 135.956C213.503 135.956 214.041 135.733 214.479 135.286C214.916 134.84 215.135 134.293 215.135 133.646C215.135 132.98 214.916 132.424 214.479 131.978C214.041 131.531 213.503 131.308 212.865 131.308ZM221.349 130.077C222.201 130.077 222.88 130.358 223.386 130.918C223.896 131.474 224.151 132.217 224.151 133.147V137.05H222.859V133.324C222.859 132.723 222.695 132.244 222.367 131.889C222.039 131.529 221.602 131.349 221.055 131.349C220.658 131.349 220.285 131.449 219.934 131.65C219.583 131.846 219.314 132.11 219.127 132.443V137.05H217.821V130.221H219.127V131.212C219.337 130.87 219.644 130.597 220.05 130.392C220.455 130.182 220.888 130.077 221.349 130.077ZM228.335 137.187C227.802 137.187 227.275 137.098 226.756 136.92C226.241 136.742 225.819 136.505 225.491 136.209L226.024 135.245C226.289 135.501 226.637 135.71 227.07 135.874C227.503 136.034 227.92 136.114 228.321 136.114C228.713 136.114 229.032 136.027 229.278 135.854C229.529 135.676 229.654 135.455 229.654 135.191C229.654 134.986 229.581 134.815 229.436 134.678C229.29 134.541 229.101 134.436 228.868 134.364C228.636 134.286 228.378 134.218 228.096 134.158C227.818 134.095 227.537 134.019 227.255 133.933C226.977 133.842 226.722 133.732 226.489 133.605C226.257 133.473 226.068 133.286 225.922 133.044C225.776 132.798 225.703 132.504 225.703 132.162C225.703 131.543 225.942 131.041 226.421 130.658C226.899 130.271 227.524 130.077 228.294 130.077C228.772 130.077 229.233 130.153 229.675 130.303C230.121 130.453 230.488 130.668 230.775 130.946L230.215 131.923C229.978 131.691 229.661 131.508 229.265 131.376C228.868 131.24 228.504 131.171 228.171 131.171C227.815 131.171 227.531 131.253 227.316 131.417C227.102 131.577 226.995 131.789 226.995 132.053C226.995 132.24 227.068 132.397 227.214 132.525C227.36 132.648 227.549 132.748 227.781 132.825C228.014 132.898 228.269 132.969 228.547 133.037C228.829 133.101 229.112 133.183 229.395 133.283C229.677 133.379 229.935 133.498 230.167 133.639C230.399 133.78 230.589 133.978 230.734 134.234C230.88 134.489 230.953 134.792 230.953 135.143C230.953 135.735 230.709 136.225 230.222 136.613C229.734 136.995 229.105 137.187 228.335 137.187ZM238.712 133.338C238.712 133.466 238.703 133.643 238.685 133.871H233.223C233.282 134.528 233.519 135.052 233.934 135.444C234.353 135.831 234.877 136.025 235.506 136.025C235.939 136.025 236.335 135.934 236.695 135.751C237.055 135.569 237.322 135.325 237.495 135.02L238.527 135.69C238.268 136.155 237.867 136.521 237.324 136.79C236.782 137.055 236.162 137.187 235.465 137.187C234.986 137.187 234.531 137.096 234.098 136.913C233.665 136.731 233.291 136.483 232.977 136.168C232.667 135.849 232.421 135.469 232.238 135.027C232.056 134.58 231.965 134.106 231.965 133.605C231.965 132.958 232.118 132.365 232.423 131.827C232.728 131.285 233.147 130.859 233.681 130.549C234.218 130.235 234.809 130.077 235.451 130.077C236.367 130.077 237.14 130.392 237.769 131.021C238.397 131.65 238.712 132.422 238.712 133.338ZM233.277 132.894H237.379C237.338 132.383 237.133 131.966 236.764 131.643C236.395 131.319 235.939 131.157 235.396 131.157C234.859 131.157 234.401 131.315 234.022 131.629C233.644 131.944 233.396 132.365 233.277 132.894ZM243.23 130.077C243.467 130.077 243.718 130.114 243.982 130.187L243.914 131.41C243.677 131.324 243.42 131.281 243.142 131.281C242.845 131.281 242.535 131.392 242.212 131.615C241.893 131.834 241.635 132.128 241.439 132.497V137.05H240.134V130.221H241.439V131.212C241.626 130.875 241.888 130.601 242.226 130.392C242.563 130.182 242.898 130.077 243.23 130.077ZM251.393 130.221L248.508 137.05H247.394L244.509 130.221H245.91L247.954 135.368L249.978 130.221H251.393ZM257.388 130.221H258.693V137.05H257.388V136.059C257.196 136.382 256.886 136.651 256.458 136.865C256.03 137.08 255.578 137.187 255.104 137.187C254.485 137.187 253.92 137.032 253.409 136.722C252.899 136.407 252.498 135.979 252.206 135.437C251.919 134.89 251.775 134.288 251.775 133.632C251.775 132.976 251.919 132.377 252.206 131.834C252.498 131.287 252.899 130.859 253.409 130.549C253.92 130.235 254.485 130.077 255.104 130.077C255.583 130.077 256.036 130.187 256.465 130.406C256.898 130.62 257.205 130.889 257.388 131.212V130.221ZM255.357 135.97C255.777 135.97 256.173 135.865 256.547 135.656C256.925 135.441 257.205 135.168 257.388 134.835V132.443C257.205 132.105 256.925 131.83 256.547 131.615C256.173 131.401 255.777 131.294 255.357 131.294C254.697 131.294 254.143 131.517 253.696 131.964C253.254 132.406 253.033 132.962 253.033 133.632C253.033 134.297 253.254 134.853 253.696 135.3C254.143 135.747 254.697 135.97 255.357 135.97ZM264.23 135.861L264.299 136.995C264.08 137.087 263.834 137.132 263.561 137.132C262.822 137.132 262.225 136.909 261.77 136.462C261.318 136.011 261.093 135.387 261.093 134.589V131.451H259.767V130.221H261.093V128.368H262.385V130.221H264.23V131.451H262.385V134.528C262.385 134.961 262.51 135.302 262.761 135.553C263.011 135.804 263.333 135.929 263.725 135.929C263.911 135.929 264.08 135.906 264.23 135.861ZM266.274 127.152C266.507 127.152 266.71 127.238 266.883 127.411C267.056 127.585 267.143 127.787 267.143 128.02C267.143 128.257 267.056 128.462 266.883 128.635C266.71 128.804 266.507 128.888 266.274 128.888C266.033 128.888 265.828 128.804 265.659 128.635C265.491 128.466 265.406 128.261 265.406 128.02C265.406 127.787 265.491 127.585 265.659 127.411C265.832 127.238 266.037 127.152 266.274 127.152ZM265.618 130.221H266.924V137.05H265.618V130.221ZM271.873 130.077C272.525 130.077 273.119 130.235 273.657 130.549C274.195 130.859 274.619 131.287 274.929 131.834C275.243 132.381 275.4 132.985 275.4 133.646C275.4 134.644 275.059 135.485 274.375 136.168C273.696 136.847 272.862 137.187 271.873 137.187C271.221 137.187 270.624 137.032 270.082 136.722C269.544 136.412 269.12 135.986 268.811 135.444C268.501 134.901 268.346 134.302 268.346 133.646C268.346 132.639 268.685 131.793 269.364 131.11C270.043 130.421 270.88 130.077 271.873 130.077ZM271.873 131.308C271.23 131.308 270.69 131.531 270.253 131.978C269.82 132.424 269.604 132.98 269.604 133.646C269.604 134.297 269.82 134.847 270.253 135.293C270.69 135.735 271.23 135.956 271.873 135.956C272.511 135.956 273.049 135.733 273.486 135.286C273.924 134.84 274.143 134.293 274.143 133.646C274.143 132.98 273.924 132.424 273.486 131.978C273.049 131.531 272.511 131.308 271.873 131.308ZM280.356 130.077C281.209 130.077 281.888 130.358 282.394 130.918C282.904 131.474 283.159 132.217 283.159 133.147V137.05H281.867V133.324C281.867 132.723 281.703 132.244 281.375 131.889C281.047 131.529 280.609 131.349 280.062 131.349C279.666 131.349 279.292 131.449 278.941 131.65C278.59 131.846 278.322 132.11 278.135 132.443V137.05H276.829V130.221H278.135V131.212C278.344 130.87 278.652 130.597 279.058 130.392C279.463 130.182 279.896 130.077 280.356 130.077ZM294.479 135.368C294.211 135.924 293.798 136.366 293.242 136.695C292.691 137.023 292.066 137.187 291.369 137.187C290.713 137.187 290.114 137.032 289.571 136.722C289.029 136.412 288.603 135.986 288.293 135.444C287.983 134.901 287.828 134.302 287.828 133.646C287.828 132.985 287.983 132.381 288.293 131.834C288.603 131.287 289.029 130.859 289.571 130.549C290.114 130.235 290.713 130.077 291.369 130.077C292.025 130.077 292.613 130.23 293.133 130.535C293.657 130.836 294.04 131.24 294.281 131.745L293.174 132.347C293.033 132.032 292.798 131.782 292.47 131.595C292.146 131.404 291.779 131.308 291.369 131.308C290.722 131.308 290.18 131.533 289.742 131.985C289.305 132.431 289.086 132.985 289.086 133.646C289.086 134.297 289.305 134.847 289.742 135.293C290.18 135.735 290.722 135.956 291.369 135.956C291.811 135.956 292.208 135.858 292.559 135.662C292.91 135.466 293.172 135.195 293.345 134.849L294.479 135.368ZM298.889 130.077C299.54 130.077 300.135 130.235 300.673 130.549C301.211 130.859 301.634 131.287 301.944 131.834C302.259 132.381 302.416 132.985 302.416 133.646C302.416 134.644 302.074 135.485 301.391 136.168C300.712 136.847 299.878 137.187 298.889 137.187C298.237 137.187 297.64 137.032 297.098 136.722C296.56 136.412 296.136 135.986 295.826 135.444C295.516 134.901 295.361 134.302 295.361 133.646C295.361 132.639 295.701 131.793 296.38 131.11C297.059 130.421 297.895 130.077 298.889 130.077ZM298.889 131.308C298.246 131.308 297.706 131.531 297.269 131.978C296.836 132.424 296.619 132.98 296.619 133.646C296.619 134.297 296.836 134.847 297.269 135.293C297.706 135.735 298.246 135.956 298.889 135.956C299.527 135.956 300.064 135.733 300.502 135.286C300.939 134.84 301.158 134.293 301.158 133.646C301.158 132.98 300.939 132.424 300.502 131.978C300.064 131.531 299.527 131.308 298.889 131.308ZM311.781 130.077C312.62 130.077 313.294 130.335 313.805 130.85C314.315 131.365 314.57 132.055 314.57 132.921V137.05H313.278V133.147C313.278 132.573 313.126 132.119 312.82 131.786C312.515 131.449 312.1 131.281 311.576 131.281C311.23 131.281 310.89 131.385 310.558 131.595C310.229 131.8 309.974 132.055 309.792 132.361C309.819 132.475 309.84 132.609 309.854 132.764V137.05H308.562V133.147C308.562 132.577 308.407 132.124 308.097 131.786C307.791 131.449 307.386 131.281 306.88 131.281C306.502 131.281 306.16 131.378 305.854 131.574C305.549 131.766 305.314 132.023 305.15 132.347V137.05H303.845V130.221H305.15V131.185C305.355 130.884 305.636 130.624 305.991 130.406C306.351 130.187 306.784 130.077 307.29 130.077C308.306 130.077 309.029 130.483 309.457 131.294C309.717 130.948 310.047 130.658 310.448 130.426C310.854 130.194 311.298 130.077 311.781 130.077ZM324.305 130.077C325.143 130.077 325.818 130.335 326.328 130.85C326.839 131.365 327.094 132.055 327.094 132.921V137.05H325.802V133.147C325.802 132.573 325.649 132.119 325.344 131.786C325.038 131.449 324.624 131.281 324.1 131.281C323.753 131.281 323.414 131.385 323.081 131.595C322.753 131.8 322.498 132.055 322.315 132.361C322.343 132.475 322.363 132.609 322.377 132.764V137.05H321.085V133.147C321.085 132.577 320.93 132.124 320.62 131.786C320.315 131.449 319.909 131.281 319.403 131.281C319.025 131.281 318.683 131.378 318.378 131.574C318.073 131.766 317.838 132.023 317.674 132.347V137.05H316.368V130.221H317.674V131.185C317.879 130.884 318.159 130.624 318.515 130.406C318.875 130.187 319.308 130.077 319.813 130.077C320.83 130.077 321.552 130.483 321.98 131.294C322.24 130.948 322.571 130.658 322.972 130.426C323.377 130.194 323.822 130.077 324.305 130.077ZM329.548 127.152C329.78 127.152 329.983 127.238 330.156 127.411C330.329 127.585 330.416 127.787 330.416 128.02C330.416 128.257 330.329 128.462 330.156 128.635C329.983 128.804 329.78 128.888 329.548 128.888C329.306 128.888 329.101 128.804 328.933 128.635C328.764 128.466 328.68 128.261 328.68 128.02C328.68 127.787 328.764 127.585 328.933 127.411C329.106 127.238 329.311 127.152 329.548 127.152ZM328.892 130.221H330.197V137.05H328.892V130.221ZM335.734 135.861L335.803 136.995C335.584 137.087 335.338 137.132 335.064 137.132C334.326 137.132 333.729 136.909 333.273 136.462C332.822 136.011 332.597 135.387 332.597 134.589V131.451H331.271V130.221H332.597V128.368H333.889V130.221H335.734V131.451H333.889V134.528C333.889 134.961 334.014 135.302 334.265 135.553C334.515 135.804 334.837 135.929 335.229 135.929C335.415 135.929 335.584 135.906 335.734 135.861ZM345.059 130.077C345.897 130.077 346.572 130.335 347.082 130.85C347.592 131.365 347.848 132.055 347.848 132.921V137.05H346.556V133.147C346.556 132.573 346.403 132.119 346.098 131.786C345.792 131.449 345.378 131.281 344.854 131.281C344.507 131.281 344.168 131.385 343.835 131.595C343.507 131.8 343.252 132.055 343.069 132.361C343.097 132.475 343.117 132.609 343.131 132.764V137.05H341.839V133.147C341.839 132.577 341.684 132.124 341.374 131.786C341.069 131.449 340.663 131.281 340.157 131.281C339.779 131.281 339.437 131.378 339.132 131.574C338.826 131.766 338.592 132.023 338.428 132.347V137.05H337.122V130.221H338.428V131.185C338.633 130.884 338.913 130.624 339.269 130.406C339.629 130.187 340.062 130.077 340.567 130.077C341.584 130.077 342.306 130.483 342.734 131.294C342.994 130.948 343.325 130.658 343.726 130.426C344.131 130.194 344.576 130.077 345.059 130.077ZM356.03 133.338C356.03 133.466 356.021 133.643 356.003 133.871H350.541C350.6 134.528 350.837 135.052 351.252 135.444C351.671 135.831 352.195 136.025 352.824 136.025C353.257 136.025 353.654 135.934 354.014 135.751C354.374 135.569 354.64 135.325 354.813 135.02L355.846 135.69C355.586 136.155 355.185 136.521 354.643 136.79C354.1 137.055 353.48 137.187 352.783 137.187C352.305 137.187 351.849 137.096 351.416 136.913C350.983 136.731 350.609 136.483 350.295 136.168C349.985 135.849 349.739 135.469 349.557 135.027C349.374 134.58 349.283 134.106 349.283 133.605C349.283 132.958 349.436 132.365 349.741 131.827C350.047 131.285 350.466 130.859 350.999 130.549C351.537 130.235 352.127 130.077 352.77 130.077C353.686 130.077 354.458 130.392 355.087 131.021C355.716 131.65 356.03 132.422 356.03 133.338ZM350.596 132.894H354.697C354.656 132.383 354.451 131.966 354.082 131.643C353.713 131.319 353.257 131.157 352.715 131.157C352.177 131.157 351.719 131.315 351.341 131.629C350.963 131.944 350.714 132.365 350.596 132.894ZM360.979 130.077C361.832 130.077 362.511 130.358 363.017 130.918C363.527 131.474 363.782 132.217 363.782 133.147V137.05H362.49V133.324C362.49 132.723 362.326 132.244 361.998 131.889C361.67 131.529 361.232 131.349 360.686 131.349C360.289 131.349 359.915 131.449 359.564 131.65C359.214 131.846 358.945 132.11 358.758 132.443V137.05H357.452V130.221H358.758V131.212C358.967 130.87 359.275 130.597 359.681 130.392C360.086 130.182 360.519 130.077 360.979 130.077ZM368.998 135.861L369.066 136.995C368.848 137.087 368.602 137.132 368.328 137.132C367.59 137.132 366.993 136.909 366.537 136.462C366.086 136.011 365.86 135.387 365.86 134.589V131.451H364.534V130.221H365.86V128.368H367.152V130.221H368.998V131.451H367.152V134.528C367.152 134.961 367.278 135.302 367.528 135.553C367.779 135.804 368.1 135.929 368.492 135.929C368.679 135.929 368.848 135.906 368.998 135.861ZM377.365 135.861L377.434 136.995C377.215 137.087 376.969 137.132 376.695 137.132C375.957 137.132 375.36 136.909 374.904 136.462C374.453 136.011 374.228 135.387 374.228 134.589V131.451H372.901V130.221H374.228V128.368H375.52V130.221H377.365V131.451H375.52V134.528C375.52 134.961 375.645 135.302 375.896 135.553C376.146 135.804 376.467 135.929 376.859 135.929C377.046 135.929 377.215 135.906 377.365 135.861ZM382.28 130.077C383.128 130.077 383.807 130.358 384.317 130.918C384.828 131.474 385.083 132.217 385.083 133.147V137.05H383.791V133.324C383.791 132.727 383.625 132.249 383.292 131.889C382.964 131.529 382.529 131.349 381.986 131.349C381.59 131.349 381.221 131.447 380.879 131.643C380.537 131.834 380.264 132.096 380.059 132.429V137.05H378.753V127.247H380.059V131.198C380.286 130.861 380.599 130.59 380.995 130.385C381.396 130.18 381.825 130.077 382.28 130.077ZM392.124 130.221H393.43V137.05H392.124V136.059C391.933 136.382 391.623 136.651 391.194 136.865C390.766 137.08 390.315 137.187 389.841 137.187C389.221 137.187 388.656 137.032 388.146 136.722C387.635 136.407 387.234 135.979 386.942 135.437C386.655 134.89 386.512 134.288 386.512 133.632C386.512 132.976 386.655 132.377 386.942 131.834C387.234 131.287 387.635 130.859 388.146 130.549C388.656 130.235 389.221 130.077 389.841 130.077C390.319 130.077 390.773 130.187 391.201 130.406C391.634 130.62 391.942 130.889 392.124 131.212V130.221ZM390.094 135.97C390.513 135.97 390.91 135.865 391.283 135.656C391.661 135.441 391.942 135.168 392.124 134.835V132.443C391.942 132.105 391.661 131.83 391.283 131.615C390.91 131.401 390.513 131.294 390.094 131.294C389.433 131.294 388.879 131.517 388.433 131.964C387.991 132.406 387.77 132.962 387.77 133.632C387.77 134.297 387.991 134.853 388.433 135.3C388.879 135.747 389.433 135.97 390.094 135.97ZM398.967 135.861L399.035 136.995C398.816 137.087 398.57 137.132 398.297 137.132C397.559 137.132 396.962 136.909 396.506 136.462C396.055 136.011 395.829 135.387 395.829 134.589V131.451H394.503V130.221H395.829V128.368H397.121V130.221H398.967V131.451H397.121V134.528C397.121 134.961 397.246 135.302 397.497 135.553C397.748 135.804 398.069 135.929 398.461 135.929C398.648 135.929 398.816 135.906 398.967 135.861ZM408.619 130.221H409.911V137.05H408.619V136.059C408.41 136.401 408.102 136.674 407.696 136.879C407.291 137.084 406.853 137.187 406.384 137.187C405.536 137.187 404.857 136.909 404.347 136.353C403.836 135.797 403.581 135.059 403.581 134.138V130.221H404.887V133.94C404.887 134.541 405.049 135.022 405.372 135.382C405.7 135.738 406.135 135.915 406.678 135.915C407.079 135.915 407.455 135.817 407.806 135.621C408.161 135.421 408.432 135.154 408.619 134.822V130.221ZM415.298 130.077C415.918 130.077 416.483 130.235 416.993 130.549C417.504 130.859 417.905 131.287 418.196 131.834C418.488 132.377 418.634 132.976 418.634 133.632C418.634 134.288 418.488 134.89 418.196 135.437C417.905 135.979 417.504 136.407 416.993 136.722C416.483 137.032 415.918 137.187 415.298 137.187C414.824 137.187 414.37 137.08 413.938 136.865C413.509 136.651 413.204 136.382 413.021 136.059V139.545H411.716V130.221H413.021V131.212C413.213 130.889 413.523 130.62 413.951 130.406C414.38 130.187 414.828 130.077 415.298 130.077ZM415.045 135.97C415.706 135.97 416.257 135.749 416.699 135.307C417.146 134.86 417.369 134.302 417.369 133.632C417.369 132.967 417.146 132.411 416.699 131.964C416.257 131.517 415.706 131.294 415.045 131.294C414.63 131.294 414.234 131.401 413.855 131.615C413.482 131.825 413.204 132.096 413.021 132.429V134.822C413.204 135.159 413.482 135.434 413.855 135.649C414.229 135.863 414.626 135.97 415.045 135.97ZM423.583 130.077C424.431 130.077 425.11 130.358 425.62 130.918C426.131 131.474 426.386 132.217 426.386 133.147V137.05H425.094V133.324C425.094 132.727 424.927 132.249 424.595 131.889C424.267 131.529 423.831 131.349 423.289 131.349C422.893 131.349 422.523 131.447 422.182 131.643C421.84 131.834 421.566 132.096 421.361 132.429V137.05H420.056V127.247H421.361V131.198C421.589 130.861 421.901 130.59 422.298 130.385C422.699 130.18 423.127 130.077 423.583 130.077ZM431.342 130.077C431.993 130.077 432.588 130.235 433.126 130.549C433.664 130.859 434.088 131.287 434.397 131.834C434.712 132.381 434.869 132.985 434.869 133.646C434.869 134.644 434.527 135.485 433.844 136.168C433.165 136.847 432.331 137.187 431.342 137.187C430.69 137.187 430.093 137.032 429.551 136.722C429.013 136.412 428.589 135.986 428.279 135.444C427.969 134.901 427.814 134.302 427.814 133.646C427.814 132.639 428.154 131.793 428.833 131.11C429.512 130.421 430.348 130.077 431.342 130.077ZM431.342 131.308C430.699 131.308 430.159 131.531 429.722 131.978C429.289 132.424 429.072 132.98 429.072 133.646C429.072 134.297 429.289 134.847 429.722 135.293C430.159 135.735 430.699 135.956 431.342 135.956C431.98 135.956 432.518 135.733 432.955 135.286C433.393 134.84 433.611 134.293 433.611 133.646C433.611 132.98 433.393 132.424 432.955 131.978C432.518 131.531 431.98 131.308 431.342 131.308ZM437.604 127.247V137.05H436.298V127.247H437.604ZM444.474 127.247H445.779V137.05H444.474V136.059C444.282 136.382 443.972 136.651 443.544 136.865C443.116 137.08 442.664 137.187 442.19 137.187C441.571 137.187 441.006 137.032 440.495 136.722C439.985 136.407 439.584 135.979 439.292 135.437C439.005 134.89 438.861 134.288 438.861 133.632C438.861 132.976 439.005 132.377 439.292 131.834C439.584 131.287 439.985 130.859 440.495 130.549C441.006 130.235 441.571 130.077 442.19 130.077C442.669 130.077 443.122 130.187 443.551 130.406C443.984 130.62 444.291 130.889 444.474 131.212V127.247ZM442.443 135.97C442.863 135.97 443.259 135.865 443.633 135.656C444.011 135.441 444.291 135.168 444.474 134.835V132.443C444.291 132.105 444.011 131.83 443.633 131.615C443.259 131.401 442.863 131.294 442.443 131.294C441.783 131.294 441.229 131.517 440.782 131.964C440.34 132.406 440.119 132.962 440.119 133.632C440.119 134.297 440.34 134.853 440.782 135.3C441.229 135.747 441.783 135.97 442.443 135.97ZM449.942 137.187C449.409 137.187 448.883 137.098 448.363 136.92C447.848 136.742 447.427 136.505 447.099 136.209L447.632 135.245C447.896 135.501 448.245 135.71 448.678 135.874C449.111 136.034 449.528 136.114 449.929 136.114C450.321 136.114 450.64 136.027 450.886 135.854C451.136 135.676 451.262 135.455 451.262 135.191C451.262 134.986 451.189 134.815 451.043 134.678C450.897 134.541 450.708 134.436 450.476 134.364C450.243 134.286 449.986 134.218 449.703 134.158C449.425 134.095 449.145 134.019 448.862 133.933C448.584 133.842 448.329 133.732 448.097 133.605C447.864 133.473 447.675 133.286 447.529 133.044C447.383 132.798 447.311 132.504 447.311 132.162C447.311 131.543 447.55 131.041 448.028 130.658C448.507 130.271 449.131 130.077 449.901 130.077C450.38 130.077 450.84 130.153 451.282 130.303C451.729 130.453 452.096 130.668 452.383 130.946L451.822 131.923C451.585 131.691 451.269 131.508 450.872 131.376C450.476 131.24 450.111 131.171 449.778 131.171C449.423 131.171 449.138 131.253 448.924 131.417C448.71 131.577 448.603 131.789 448.603 132.053C448.603 132.24 448.675 132.397 448.821 132.525C448.967 132.648 449.156 132.748 449.389 132.825C449.621 132.898 449.876 132.969 450.154 133.037C450.437 133.101 450.719 133.183 451.002 133.283C451.285 133.379 451.542 133.498 451.774 133.639C452.007 133.78 452.196 133.978 452.342 134.234C452.488 134.489 452.561 134.792 452.561 135.143C452.561 135.735 452.317 136.225 451.829 136.613C451.341 136.995 450.713 137.187 449.942 137.187ZM460.955 135.861L461.023 136.995C460.805 137.087 460.559 137.132 460.285 137.132C459.547 137.132 458.95 136.909 458.494 136.462C458.043 136.011 457.817 135.387 457.817 134.589V131.451H456.491V130.221H457.817V128.368H459.109V130.221H460.955V131.451H459.109V134.528C459.109 134.961 459.235 135.302 459.485 135.553C459.736 135.804 460.057 135.929 460.449 135.929C460.636 135.929 460.805 135.906 460.955 135.861ZM465.87 130.077C466.718 130.077 467.397 130.358 467.907 130.918C468.418 131.474 468.673 132.217 468.673 133.147V137.05H467.381V133.324C467.381 132.727 467.215 132.249 466.882 131.889C466.554 131.529 466.118 131.349 465.576 131.349C465.18 131.349 464.811 131.447 464.469 131.643C464.127 131.834 463.854 132.096 463.648 132.429V137.05H462.343V127.247H463.648V131.198C463.876 130.861 464.188 130.59 464.585 130.385C464.986 130.18 465.414 130.077 465.87 130.077ZM476.849 133.338C476.849 133.466 476.84 133.643 476.821 133.871H471.359C471.419 134.528 471.656 135.052 472.07 135.444C472.49 135.831 473.014 136.025 473.643 136.025C474.076 136.025 474.472 135.934 474.832 135.751C475.192 135.569 475.459 135.325 475.632 135.02L476.664 135.69C476.404 136.155 476.003 136.521 475.461 136.79C474.919 137.055 474.299 137.187 473.602 137.187C473.123 137.187 472.667 137.096 472.234 136.913C471.801 136.731 471.428 136.483 471.113 136.168C470.803 135.849 470.557 135.469 470.375 135.027C470.193 134.58 470.102 134.106 470.102 133.605C470.102 132.958 470.254 132.365 470.56 131.827C470.865 131.285 471.284 130.859 471.817 130.549C472.355 130.235 472.945 130.077 473.588 130.077C474.504 130.077 475.276 130.392 475.905 131.021C476.534 131.65 476.849 132.422 476.849 133.338ZM471.414 132.894H475.516C475.475 132.383 475.27 131.966 474.9 131.643C474.531 131.319 474.076 131.157 473.533 131.157C472.995 131.157 472.537 131.315 472.159 131.629C471.781 131.944 471.533 132.365 471.414 132.894ZM485.079 130.077C485.699 130.077 486.264 130.235 486.774 130.549C487.285 130.859 487.686 131.287 487.978 131.834C488.269 132.377 488.415 132.976 488.415 133.632C488.415 134.288 488.269 134.89 487.978 135.437C487.686 135.979 487.285 136.407 486.774 136.722C486.264 137.032 485.699 137.187 485.079 137.187C484.605 137.187 484.152 137.08 483.719 136.865C483.29 136.651 482.985 136.382 482.803 136.059V139.545H481.497V130.221H482.803V131.212C482.994 130.889 483.304 130.62 483.732 130.406C484.161 130.187 484.61 130.077 485.079 130.077ZM484.826 135.97C485.487 135.97 486.038 135.749 486.48 135.307C486.927 134.86 487.15 134.302 487.15 133.632C487.15 132.967 486.927 132.411 486.48 131.964C486.038 131.517 485.487 131.294 484.826 131.294C484.411 131.294 484.015 131.401 483.637 131.615C483.263 131.825 482.985 132.096 482.803 132.429V134.822C482.985 135.159 483.263 135.434 483.637 135.649C484.01 135.863 484.407 135.97 484.826 135.97ZM492.934 130.077C493.171 130.077 493.421 130.114 493.686 130.187L493.617 131.41C493.38 131.324 493.123 131.281 492.845 131.281C492.549 131.281 492.239 131.392 491.915 131.615C491.596 131.834 491.339 132.128 491.143 132.497V137.05H489.837V130.221H491.143V131.212C491.329 130.875 491.591 130.601 491.929 130.392C492.266 130.182 492.601 130.077 492.934 130.077ZM495.552 127.152C495.784 127.152 495.987 127.238 496.16 127.411C496.333 127.585 496.42 127.787 496.42 128.02C496.42 128.257 496.333 128.462 496.16 128.635C495.987 128.804 495.784 128.888 495.552 128.888C495.31 128.888 495.105 128.804 494.937 128.635C494.768 128.466 494.684 128.261 494.684 128.02C494.684 127.787 494.768 127.585 494.937 127.411C495.11 127.238 495.315 127.152 495.552 127.152ZM494.896 130.221H496.201V137.05H494.896V130.221ZM501.513 130.077C502.365 130.077 503.044 130.358 503.55 130.918C504.06 131.474 504.315 132.217 504.315 133.147V137.05H503.023V133.324C503.023 132.723 502.859 132.244 502.531 131.889C502.203 131.529 501.766 131.349 501.219 131.349C500.822 131.349 500.449 131.449 500.098 131.65C499.747 131.846 499.478 132.11 499.291 132.443V137.05H497.985V130.221H499.291V131.212C499.501 130.87 499.808 130.597 500.214 130.392C500.619 130.182 501.052 130.077 501.513 130.077ZM512.409 135.368C512.14 135.924 511.728 136.366 511.172 136.695C510.62 137.023 509.996 137.187 509.299 137.187C508.643 137.187 508.043 137.032 507.501 136.722C506.959 136.412 506.533 135.986 506.223 135.444C505.913 134.901 505.758 134.302 505.758 133.646C505.758 132.985 505.913 132.381 506.223 131.834C506.533 131.287 506.959 130.859 507.501 130.549C508.043 130.235 508.643 130.077 509.299 130.077C509.955 130.077 510.543 130.23 511.062 130.535C511.587 130.836 511.969 131.24 512.211 131.745L511.104 132.347C510.962 132.032 510.728 131.782 510.399 131.595C510.076 131.404 509.709 131.308 509.299 131.308C508.652 131.308 508.109 131.533 507.672 131.985C507.234 132.431 507.016 132.985 507.016 133.646C507.016 134.297 507.234 134.847 507.672 135.293C508.109 135.735 508.652 135.956 509.299 135.956C509.741 135.956 510.137 135.858 510.488 135.662C510.839 135.466 511.101 135.195 511.274 134.849L512.409 135.368ZM514.31 127.152C514.542 127.152 514.745 127.238 514.918 127.411C515.091 127.585 515.178 127.787 515.178 128.02C515.178 128.257 515.091 128.462 514.918 128.635C514.745 128.804 514.542 128.888 514.31 128.888C514.068 128.888 513.863 128.804 513.694 128.635C513.526 128.466 513.441 128.261 513.441 128.02C513.441 127.787 513.526 127.585 513.694 127.411C513.868 127.238 514.073 127.152 514.31 127.152ZM513.653 130.221H514.959V137.05H513.653V130.221ZM520.325 130.077C520.945 130.077 521.51 130.235 522.021 130.549C522.531 130.859 522.932 131.287 523.224 131.834C523.515 132.377 523.661 132.976 523.661 133.632C523.661 134.288 523.515 134.89 523.224 135.437C522.932 135.979 522.531 136.407 522.021 136.722C521.51 137.032 520.945 137.187 520.325 137.187C519.851 137.187 519.398 137.08 518.965 136.865C518.536 136.651 518.231 136.382 518.049 136.059V139.545H516.743V130.221H518.049V131.212C518.24 130.889 518.55 130.62 518.979 130.406C519.407 130.187 519.856 130.077 520.325 130.077ZM520.072 135.97C520.733 135.97 521.285 135.749 521.727 135.307C522.173 134.86 522.396 134.302 522.396 133.632C522.396 132.967 522.173 132.411 521.727 131.964C521.285 131.517 520.733 131.294 520.072 131.294C519.658 131.294 519.261 131.401 518.883 131.615C518.509 131.825 518.231 132.096 518.049 132.429V134.822C518.231 135.159 518.509 135.434 518.883 135.649C519.257 135.863 519.653 135.97 520.072 135.97ZM526.389 127.247V137.05H525.083V127.247H526.389ZM534.394 133.338C534.394 133.466 534.384 133.643 534.366 133.871H528.904C528.964 134.528 529.201 135.052 529.615 135.444C530.035 135.831 530.559 136.025 531.188 136.025C531.62 136.025 532.017 135.934 532.377 135.751C532.737 135.569 533.004 135.325 533.177 135.02L534.209 135.69C533.949 136.155 533.548 136.521 533.006 136.79C532.464 137.055 531.844 137.187 531.146 137.187C530.668 137.187 530.212 137.096 529.779 136.913C529.346 136.731 528.973 136.483 528.658 136.168C528.348 135.849 528.102 135.469 527.92 135.027C527.738 134.58 527.646 134.106 527.646 133.605C527.646 132.958 527.799 132.365 528.104 131.827C528.41 131.285 528.829 130.859 529.362 130.549C529.9 130.235 530.49 130.077 531.133 130.077C532.049 130.077 532.821 130.392 533.45 131.021C534.079 131.65 534.394 132.422 534.394 133.338ZM528.959 132.894H533.061C533.02 132.383 532.814 131.966 532.445 131.643C532.076 131.319 531.62 131.157 531.078 131.157C530.54 131.157 530.082 131.315 529.704 131.629C529.326 131.944 529.077 132.365 528.959 132.894ZM538.153 137.187C537.62 137.187 537.094 137.098 536.574 136.92C536.059 136.742 535.638 136.505 535.31 136.209L535.843 135.245C536.107 135.501 536.456 135.71 536.889 135.874C537.322 136.034 537.739 136.114 538.14 136.114C538.532 136.114 538.851 136.027 539.097 135.854C539.347 135.676 539.473 135.455 539.473 135.191C539.473 134.986 539.4 134.815 539.254 134.678C539.108 134.541 538.919 134.436 538.687 134.364C538.454 134.286 538.197 134.218 537.914 134.158C537.636 134.095 537.356 134.019 537.073 133.933C536.795 133.842 536.54 133.732 536.308 133.605C536.075 133.473 535.886 133.286 535.74 133.044C535.594 132.798 535.521 132.504 535.521 132.162C535.521 131.543 535.761 131.041 536.239 130.658C536.718 130.271 537.342 130.077 538.112 130.077C538.591 130.077 539.051 130.153 539.493 130.303C539.94 130.453 540.307 130.668 540.594 130.946L540.033 131.923C539.796 131.691 539.479 131.508 539.083 131.376C538.687 131.24 538.322 131.171 537.989 131.171C537.634 131.171 537.349 131.253 537.135 131.417C536.921 131.577 536.813 131.789 536.813 132.053C536.813 132.24 536.886 132.397 537.032 132.525C537.178 132.648 537.367 132.748 537.6 132.825C537.832 132.898 538.087 132.969 538.365 133.037C538.648 133.101 538.93 133.183 539.213 133.283C539.495 133.379 539.753 133.498 539.985 133.639C540.218 133.78 540.407 133.978 540.553 134.234C540.699 134.489 540.771 134.792 540.771 135.143C540.771 135.735 540.528 136.225 540.04 136.613C539.552 136.995 538.924 137.187 538.153 137.187ZM548.578 130.077C549.23 130.077 549.825 130.235 550.362 130.549C550.9 130.859 551.324 131.287 551.634 131.834C551.948 132.381 552.105 132.985 552.105 133.646C552.105 134.644 551.764 135.485 551.08 136.168C550.401 136.847 549.567 137.187 548.578 137.187C547.926 137.187 547.329 137.032 546.787 136.722C546.249 136.412 545.826 135.986 545.516 135.444C545.206 134.901 545.051 134.302 545.051 133.646C545.051 132.639 545.39 131.793 546.069 131.11C546.748 130.421 547.585 130.077 548.578 130.077ZM548.578 131.308C547.936 131.308 547.396 131.531 546.958 131.978C546.525 132.424 546.309 132.98 546.309 133.646C546.309 134.297 546.525 134.847 546.958 135.293C547.396 135.735 547.936 135.956 548.578 135.956C549.216 135.956 549.754 135.733 550.191 135.286C550.629 134.84 550.848 134.293 550.848 133.646C550.848 132.98 550.629 132.424 550.191 131.978C549.754 131.531 549.216 131.308 548.578 131.308ZM556.672 128.177C556.28 128.177 555.959 128.302 555.708 128.553C555.457 128.804 555.332 129.148 555.332 129.585V130.221H557.178V131.451H555.332V137.05H554.04V131.451H552.714V130.221H554.04V129.531C554.04 128.733 554.266 128.106 554.717 127.651C555.173 127.195 555.77 126.967 556.508 126.967C556.768 126.967 557.014 127.015 557.246 127.111L557.178 128.245C557.027 128.2 556.859 128.177 556.672 128.177ZM63.2744 154.187C62.7412 154.187 62.2148 154.098 61.6953 153.92C61.1803 153.742 60.7588 153.505 60.4307 153.209L60.9639 152.245C61.2282 152.501 61.5768 152.71 62.0098 152.874C62.4427 153.034 62.8597 153.114 63.2607 153.114C63.6527 153.114 63.9717 153.027 64.2178 152.854C64.4684 152.676 64.5938 152.455 64.5938 152.191C64.5938 151.986 64.5208 151.815 64.375 151.678C64.2292 151.541 64.04 151.436 63.8076 151.364C63.5752 151.286 63.3177 151.218 63.0352 151.158C62.7572 151.095 62.4769 151.019 62.1943 150.933C61.9163 150.842 61.6611 150.732 61.4287 150.605C61.1963 150.473 61.0072 150.286 60.8613 150.044C60.7155 149.798 60.6426 149.504 60.6426 149.162C60.6426 148.543 60.8818 148.041 61.3604 147.658C61.8389 147.271 62.4632 147.077 63.2334 147.077C63.7119 147.077 64.1722 147.153 64.6143 147.303C65.0609 147.453 65.4277 147.668 65.7148 147.946L65.1543 148.923C64.9173 148.691 64.6006 148.508 64.2041 148.376C63.8076 148.24 63.443 148.171 63.1104 148.171C62.7549 148.171 62.4701 148.253 62.2559 148.417C62.0417 148.577 61.9346 148.789 61.9346 149.053C61.9346 149.24 62.0075 149.397 62.1533 149.525C62.2992 149.648 62.4883 149.748 62.7207 149.825C62.9531 149.898 63.2083 149.969 63.4863 150.037C63.7689 150.101 64.0514 150.183 64.334 150.283C64.6165 150.379 64.874 150.498 65.1064 150.639C65.3389 150.78 65.528 150.978 65.6738 151.234C65.8197 151.489 65.8926 151.792 65.8926 152.143C65.8926 152.735 65.6488 153.225 65.1611 153.613C64.6735 153.995 64.0446 154.187 63.2744 154.187ZM72.2227 147.221H73.5146V154.05H72.2227V153.059C72.013 153.401 71.7054 153.674 71.2998 153.879C70.8942 154.084 70.4567 154.187 69.9873 154.187C69.1396 154.187 68.4606 153.909 67.9502 153.353C67.4398 152.797 67.1846 152.059 67.1846 151.138V147.221H68.4902V150.94C68.4902 151.541 68.652 152.022 68.9756 152.382C69.3037 152.738 69.7389 152.915 70.2812 152.915C70.6823 152.915 71.0583 152.817 71.4092 152.621C71.7646 152.421 72.0358 152.154 72.2227 151.822V147.221ZM77.6982 154.187C77.165 154.187 76.6387 154.098 76.1191 153.92C75.6042 153.742 75.1826 153.505 74.8545 153.209L75.3877 152.245C75.652 152.501 76.0007 152.71 76.4336 152.874C76.8665 153.034 77.2835 153.114 77.6846 153.114C78.0765 153.114 78.3955 153.027 78.6416 152.854C78.8923 152.676 79.0176 152.455 79.0176 152.191C79.0176 151.986 78.9447 151.815 78.7988 151.678C78.653 151.541 78.4639 151.436 78.2314 151.364C77.999 151.286 77.7415 151.218 77.459 151.158C77.181 151.095 76.9007 151.019 76.6182 150.933C76.3402 150.842 76.085 150.732 75.8525 150.605C75.6201 150.473 75.431 150.286 75.2852 150.044C75.1393 149.798 75.0664 149.504 75.0664 149.162C75.0664 148.543 75.3057 148.041 75.7842 147.658C76.2627 147.271 76.887 147.077 77.6572 147.077C78.1357 147.077 78.596 147.153 79.0381 147.303C79.4847 147.453 79.8516 147.668 80.1387 147.946L79.5781 148.923C79.3411 148.691 79.0244 148.508 78.6279 148.376C78.2314 148.24 77.8669 148.171 77.5342 148.171C77.1787 148.171 76.8939 148.253 76.6797 148.417C76.4655 148.577 76.3584 148.789 76.3584 149.053C76.3584 149.24 76.4313 149.397 76.5771 149.525C76.723 149.648 76.9121 149.748 77.1445 149.825C77.377 149.898 77.6322 149.969 77.9102 150.037C78.1927 150.101 78.4753 150.183 78.7578 150.283C79.0404 150.379 79.2979 150.498 79.5303 150.639C79.7627 150.78 79.9518 150.978 80.0977 151.234C80.2435 151.489 80.3164 151.792 80.3164 152.143C80.3164 152.735 80.0726 153.225 79.585 153.613C79.0973 153.995 78.4684 154.187 77.6982 154.187ZM85.293 152.861L85.3613 153.995C85.1426 154.087 84.8965 154.132 84.623 154.132C83.8848 154.132 83.2878 153.909 82.832 153.462C82.3809 153.011 82.1553 152.387 82.1553 151.589V148.451H80.8291V147.221H82.1553V145.368H83.4473V147.221H85.293V148.451H83.4473V151.528C83.4473 151.961 83.5726 152.302 83.8232 152.553C84.0739 152.804 84.3952 152.929 84.7871 152.929C84.974 152.929 85.1426 152.906 85.293 152.861ZM91.5205 147.221H92.8262V154.05H91.5205V153.059C91.3291 153.382 91.0192 153.651 90.5908 153.865C90.1624 154.08 89.7113 154.187 89.2373 154.187C88.6175 154.187 88.0524 154.032 87.542 153.722C87.0316 153.407 86.6305 152.979 86.3389 152.437C86.0518 151.89 85.9082 151.288 85.9082 150.632C85.9082 149.976 86.0518 149.377 86.3389 148.834C86.6305 148.287 87.0316 147.859 87.542 147.549C88.0524 147.235 88.6175 147.077 89.2373 147.077C89.7158 147.077 90.1693 147.187 90.5977 147.406C91.0306 147.62 91.3382 147.889 91.5205 148.212V147.221ZM89.4902 152.97C89.9095 152.97 90.306 152.865 90.6797 152.656C91.0579 152.441 91.3382 152.168 91.5205 151.835V149.443C91.3382 149.105 91.0579 148.83 90.6797 148.615C90.306 148.401 89.9095 148.294 89.4902 148.294C88.8294 148.294 88.2757 148.517 87.8291 148.964C87.387 149.406 87.166 149.962 87.166 150.632C87.166 151.297 87.387 151.853 87.8291 152.3C88.2757 152.747 88.8294 152.97 89.4902 152.97ZM95.2666 144.152C95.499 144.152 95.7018 144.238 95.875 144.411C96.0482 144.585 96.1348 144.787 96.1348 145.02C96.1348 145.257 96.0482 145.462 95.875 145.635C95.7018 145.804 95.499 145.888 95.2666 145.888C95.0251 145.888 94.82 145.804 94.6514 145.635C94.4827 145.466 94.3984 145.261 94.3984 145.02C94.3984 144.787 94.4827 144.585 94.6514 144.411C94.8245 144.238 95.0296 144.152 95.2666 144.152ZM94.6104 147.221H95.916V154.05H94.6104V147.221ZM101.228 147.077C102.08 147.077 102.759 147.358 103.265 147.918C103.775 148.474 104.03 149.217 104.03 150.147V154.05H102.738V150.324C102.738 149.723 102.574 149.244 102.246 148.889C101.918 148.529 101.48 148.349 100.934 148.349C100.537 148.349 100.163 148.449 99.8125 148.65C99.4616 148.846 99.1927 149.11 99.0059 149.443V154.05H97.7002V147.221H99.0059V148.212C99.2155 147.87 99.5231 147.597 99.9287 147.392C100.334 147.182 100.767 147.077 101.228 147.077ZM111.085 147.221H112.391V154.05H111.085V153.059C110.894 153.382 110.584 153.651 110.155 153.865C109.727 154.08 109.276 154.187 108.802 154.187C108.182 154.187 107.617 154.032 107.106 153.722C106.596 153.407 106.195 152.979 105.903 152.437C105.616 151.89 105.473 151.288 105.473 150.632C105.473 149.976 105.616 149.377 105.903 148.834C106.195 148.287 106.596 147.859 107.106 147.549C107.617 147.235 108.182 147.077 108.802 147.077C109.28 147.077 109.734 147.187 110.162 147.406C110.595 147.62 110.903 147.889 111.085 148.212V147.221ZM109.055 152.97C109.474 152.97 109.87 152.865 110.244 152.656C110.622 152.441 110.903 152.168 111.085 151.835V149.443C110.903 149.105 110.622 148.83 110.244 148.615C109.87 148.401 109.474 148.294 109.055 148.294C108.394 148.294 107.84 148.517 107.394 148.964C106.951 149.406 106.73 149.962 106.73 150.632C106.73 151.297 106.951 151.853 107.394 152.3C107.84 152.747 108.394 152.97 109.055 152.97ZM117.757 147.077C118.377 147.077 118.942 147.235 119.452 147.549C119.963 147.859 120.364 148.287 120.655 148.834C120.947 149.377 121.093 149.976 121.093 150.632C121.093 151.288 120.947 151.89 120.655 152.437C120.364 152.979 119.963 153.407 119.452 153.722C118.942 154.032 118.377 154.187 117.757 154.187C117.287 154.187 116.839 154.08 116.41 153.865C115.982 153.651 115.672 153.382 115.48 153.059V154.05H114.175V144.247H115.48V148.212C115.663 147.889 115.968 147.62 116.396 147.406C116.829 147.187 117.283 147.077 117.757 147.077ZM117.504 152.97C118.165 152.97 118.716 152.747 119.158 152.3C119.605 151.853 119.828 151.297 119.828 150.632C119.828 149.962 119.605 149.406 119.158 148.964C118.716 148.517 118.165 148.294 117.504 148.294C117.085 148.294 116.688 148.401 116.314 148.615C115.941 148.83 115.663 149.105 115.48 149.443V151.835C115.663 152.168 115.941 152.441 116.314 152.656C116.693 152.865 117.089 152.97 117.504 152.97ZM123.82 144.247V154.05H122.515V144.247H123.82ZM131.825 150.338C131.825 150.466 131.816 150.643 131.798 150.871H126.336C126.395 151.528 126.632 152.052 127.047 152.444C127.466 152.831 127.99 153.025 128.619 153.025C129.052 153.025 129.449 152.934 129.809 152.751C130.169 152.569 130.435 152.325 130.608 152.02L131.641 152.69C131.381 153.155 130.98 153.521 130.438 153.79C129.895 154.055 129.275 154.187 128.578 154.187C128.1 154.187 127.644 154.096 127.211 153.913C126.778 153.731 126.404 153.483 126.09 153.168C125.78 152.849 125.534 152.469 125.352 152.027C125.169 151.58 125.078 151.106 125.078 150.605C125.078 149.958 125.231 149.365 125.536 148.827C125.841 148.285 126.261 147.859 126.794 147.549C127.332 147.235 127.922 147.077 128.564 147.077C129.48 147.077 130.253 147.392 130.882 148.021C131.511 148.65 131.825 149.422 131.825 150.338ZM126.391 149.894H130.492C130.451 149.383 130.246 148.966 129.877 148.643C129.508 148.319 129.052 148.157 128.51 148.157C127.972 148.157 127.514 148.315 127.136 148.629C126.757 148.944 126.509 149.365 126.391 149.894ZM141.724 144.247H143.029V154.05H141.724V153.059C141.532 153.382 141.222 153.651 140.794 153.865C140.366 154.08 139.914 154.187 139.44 154.187C138.821 154.187 138.256 154.032 137.745 153.722C137.235 153.407 136.834 152.979 136.542 152.437C136.255 151.89 136.111 151.288 136.111 150.632C136.111 149.976 136.255 149.377 136.542 148.834C136.834 148.287 137.235 147.859 137.745 147.549C138.256 147.235 138.821 147.077 139.44 147.077C139.919 147.077 140.372 147.187 140.801 147.406C141.234 147.62 141.541 147.889 141.724 148.212V144.247ZM139.693 152.97C140.113 152.97 140.509 152.865 140.883 152.656C141.261 152.441 141.541 152.168 141.724 151.835V149.443C141.541 149.105 141.261 148.83 140.883 148.615C140.509 148.401 140.113 148.294 139.693 148.294C139.033 148.294 138.479 148.517 138.032 148.964C137.59 149.406 137.369 149.962 137.369 150.632C137.369 151.297 137.59 151.853 138.032 152.3C138.479 152.747 139.033 152.97 139.693 152.97ZM151.034 150.338C151.034 150.466 151.025 150.643 151.007 150.871H145.545C145.604 151.528 145.841 152.052 146.256 152.444C146.675 152.831 147.199 153.025 147.828 153.025C148.261 153.025 148.658 152.934 149.018 152.751C149.378 152.569 149.644 152.325 149.817 152.02L150.85 152.69C150.59 153.155 150.189 153.521 149.646 153.79C149.104 154.055 148.484 154.187 147.787 154.187C147.309 154.187 146.853 154.096 146.42 153.913C145.987 153.731 145.613 153.483 145.299 153.168C144.989 152.849 144.743 152.469 144.561 152.027C144.378 151.58 144.287 151.106 144.287 150.605C144.287 149.958 144.44 149.365 144.745 148.827C145.05 148.285 145.47 147.859 146.003 147.549C146.541 147.235 147.131 147.077 147.773 147.077C148.689 147.077 149.462 147.392 150.091 148.021C150.72 148.65 151.034 149.422 151.034 150.338ZM145.6 149.894H149.701C149.66 149.383 149.455 148.966 149.086 148.643C148.717 148.319 148.261 148.157 147.719 148.157C147.181 148.157 146.723 148.315 146.345 148.629C145.966 148.944 145.718 149.365 145.6 149.894ZM158.287 147.221L155.402 154.05H154.288L151.403 147.221H152.805L154.849 152.368L156.872 147.221H158.287ZM165.417 150.338C165.417 150.466 165.408 150.643 165.39 150.871H159.928C159.987 151.528 160.224 152.052 160.639 152.444C161.058 152.831 161.582 153.025 162.211 153.025C162.644 153.025 163.04 152.934 163.4 152.751C163.76 152.569 164.027 152.325 164.2 152.02L165.232 152.69C164.973 153.155 164.572 153.521 164.029 153.79C163.487 154.055 162.867 154.187 162.17 154.187C161.691 154.187 161.236 154.096 160.803 153.913C160.37 153.731 159.996 153.483 159.682 153.168C159.372 152.849 159.126 152.469 158.943 152.027C158.761 151.58 158.67 151.106 158.67 150.605C158.67 149.958 158.823 149.365 159.128 148.827C159.433 148.285 159.853 147.859 160.386 147.549C160.924 147.235 161.514 147.077 162.156 147.077C163.072 147.077 163.845 147.392 164.474 148.021C165.103 148.65 165.417 149.422 165.417 150.338ZM159.982 149.894H164.084C164.043 149.383 163.838 148.966 163.469 148.643C163.1 148.319 162.644 148.157 162.102 148.157C161.564 148.157 161.106 148.315 160.728 148.629C160.349 148.944 160.101 149.365 159.982 149.894ZM168.145 144.247V154.05H166.839V144.247H168.145ZM172.93 147.077C173.581 147.077 174.176 147.235 174.714 147.549C175.252 147.859 175.675 148.287 175.985 148.834C176.3 149.381 176.457 149.985 176.457 150.646C176.457 151.644 176.115 152.485 175.432 153.168C174.753 153.847 173.919 154.187 172.93 154.187C172.278 154.187 171.681 154.032 171.139 153.722C170.601 153.412 170.177 152.986 169.867 152.444C169.557 151.901 169.402 151.302 169.402 150.646C169.402 149.639 169.742 148.793 170.421 148.11C171.1 147.421 171.936 147.077 172.93 147.077ZM172.93 148.308C172.287 148.308 171.747 148.531 171.31 148.978C170.877 149.424 170.66 149.98 170.66 150.646C170.66 151.297 170.877 151.847 171.31 152.293C171.747 152.735 172.287 152.956 172.93 152.956C173.568 152.956 174.105 152.733 174.543 152.286C174.98 151.84 175.199 151.293 175.199 150.646C175.199 149.98 174.98 149.424 174.543 148.978C174.105 148.531 173.568 148.308 172.93 148.308ZM181.468 147.077C182.088 147.077 182.653 147.235 183.163 147.549C183.674 147.859 184.075 148.287 184.366 148.834C184.658 149.377 184.804 149.976 184.804 150.632C184.804 151.288 184.658 151.89 184.366 152.437C184.075 152.979 183.674 153.407 183.163 153.722C182.653 154.032 182.088 154.187 181.468 154.187C180.994 154.187 180.54 154.08 180.107 153.865C179.679 153.651 179.374 153.382 179.191 153.059V156.545H177.886V147.221H179.191V148.212C179.383 147.889 179.693 147.62 180.121 147.406C180.549 147.187 180.998 147.077 181.468 147.077ZM181.215 152.97C181.876 152.97 182.427 152.749 182.869 152.307C183.316 151.86 183.539 151.302 183.539 150.632C183.539 149.967 183.316 149.411 182.869 148.964C182.427 148.517 181.876 148.294 181.215 148.294C180.8 148.294 180.404 148.401 180.025 148.615C179.652 148.825 179.374 149.096 179.191 149.429V151.822C179.374 152.159 179.652 152.434 180.025 152.649C180.399 152.863 180.796 152.97 181.215 152.97ZM194.162 147.077C195.001 147.077 195.675 147.335 196.186 147.85C196.696 148.365 196.951 149.055 196.951 149.921V154.05H195.659V150.147C195.659 149.573 195.507 149.119 195.201 148.786C194.896 148.449 194.481 148.281 193.957 148.281C193.611 148.281 193.271 148.385 192.938 148.595C192.61 148.8 192.355 149.055 192.173 149.361C192.2 149.475 192.221 149.609 192.234 149.764V154.05H190.942V150.147C190.942 149.577 190.787 149.124 190.478 148.786C190.172 148.449 189.767 148.281 189.261 148.281C188.882 148.281 188.541 148.378 188.235 148.574C187.93 148.766 187.695 149.023 187.531 149.347V154.05H186.226V147.221H187.531V148.185C187.736 147.884 188.017 147.624 188.372 147.406C188.732 147.187 189.165 147.077 189.671 147.077C190.687 147.077 191.41 147.483 191.838 148.294C192.098 147.948 192.428 147.658 192.829 147.426C193.235 147.194 193.679 147.077 194.162 147.077ZM205.134 150.338C205.134 150.466 205.125 150.643 205.106 150.871H199.645C199.704 151.528 199.941 152.052 200.355 152.444C200.775 152.831 201.299 153.025 201.928 153.025C202.361 153.025 202.757 152.934 203.117 152.751C203.477 152.569 203.744 152.325 203.917 152.02L204.949 152.69C204.689 153.155 204.288 153.521 203.746 153.79C203.204 154.055 202.584 154.187 201.887 154.187C201.408 154.187 200.952 154.096 200.52 153.913C200.087 153.731 199.713 153.483 199.398 153.168C199.089 152.849 198.842 152.469 198.66 152.027C198.478 151.58 198.387 151.106 198.387 150.605C198.387 149.958 198.539 149.365 198.845 148.827C199.15 148.285 199.569 147.859 200.103 147.549C200.64 147.235 201.23 147.077 201.873 147.077C202.789 147.077 203.562 147.392 204.19 148.021C204.819 148.65 205.134 149.422 205.134 150.338ZM199.699 149.894H203.801C203.76 149.383 203.555 148.966 203.186 148.643C202.816 148.319 202.361 148.157 201.818 148.157C201.281 148.157 200.823 148.315 200.444 148.629C200.066 148.944 199.818 149.365 199.699 149.894ZM210.083 147.077C210.935 147.077 211.614 147.358 212.12 147.918C212.631 148.474 212.886 149.217 212.886 150.147V154.05H211.594V150.324C211.594 149.723 211.43 149.244 211.102 148.889C210.773 148.529 210.336 148.349 209.789 148.349C209.393 148.349 209.019 148.449 208.668 148.65C208.317 148.846 208.048 149.11 207.861 149.443V154.05H206.556V147.221H207.861V148.212C208.071 147.87 208.379 147.597 208.784 147.392C209.19 147.182 209.623 147.077 210.083 147.077ZM218.102 152.861L218.17 153.995C217.951 154.087 217.705 154.132 217.432 154.132C216.693 154.132 216.096 153.909 215.641 153.462C215.189 153.011 214.964 152.387 214.964 151.589V148.451H213.638V147.221H214.964V145.368H216.256V147.221H218.102V148.451H216.256V151.528C216.256 151.961 216.381 152.302 216.632 152.553C216.882 152.804 217.204 152.929 217.596 152.929C217.783 152.929 217.951 152.906 218.102 152.861ZM220.275 154.187C220.002 154.187 219.774 154.098 219.592 153.92C219.414 153.742 219.325 153.519 219.325 153.25C219.325 152.99 219.414 152.769 219.592 152.587C219.774 152.405 220.002 152.314 220.275 152.314C220.54 152.314 220.763 152.405 220.945 152.587C221.132 152.769 221.226 152.99 221.226 153.25C221.226 153.515 221.134 153.738 220.952 153.92C220.77 154.098 220.544 154.187 220.275 154.187Z" fill="black"/>
<path d="M68.1328 188.245V205.05H64.6055V193.12L60.8672 196.003V191.749L65.7656 188.245H68.1328ZM72.8086 205.284C72.1992 205.284 71.6797 205.077 71.25 204.663C70.8281 204.241 70.6172 203.73 70.6172 203.128C70.6172 202.534 70.8281 202.031 71.25 201.616C71.6797 201.202 72.1992 200.995 72.8086 200.995C73.4258 200.995 73.9453 201.202 74.3672 201.616C74.7969 202.023 75.0117 202.527 75.0117 203.128C75.0117 203.73 74.7969 204.241 74.3672 204.663C73.9453 205.077 73.4258 205.284 72.8086 205.284ZM83.4141 193.823C84.9297 193.823 86.207 194.351 87.2461 195.406C88.293 196.46 88.8164 197.796 88.8164 199.413C88.8164 200.468 88.543 201.448 87.9961 202.355C87.457 203.253 86.7227 203.968 85.793 204.499C84.8711 205.023 83.8711 205.284 82.793 205.284C81.7148 205.284 80.7109 205.023 79.7812 204.499C78.8594 203.968 78.125 203.253 77.5781 202.355C77.0391 201.448 76.7695 200.468 76.7695 199.413C76.7695 198.835 76.8828 198.187 77.1094 197.468C77.3438 196.749 77.6797 196.038 78.1172 195.335L82.5117 188.245H86.5664L83.0391 193.847C83.1328 193.831 83.2578 193.823 83.4141 193.823ZM82.793 201.909C83.5195 201.909 84.1289 201.667 84.6211 201.183C85.1133 200.691 85.3594 200.093 85.3594 199.39C85.3594 198.687 85.1055 198.089 84.5977 197.597C84.0898 197.097 83.4805 196.847 82.7695 196.847C82.1133 196.847 81.5117 196.948 80.9648 197.152C80.4883 197.964 80.25 198.71 80.25 199.39C80.25 200.093 80.4922 200.691 80.9766 201.183C81.4688 201.667 82.0742 201.909 82.793 201.909ZM105.234 205.05H100.57L94.1719 197.034V205.05H90.6211V188.245H94.1719V195.359L100.148 188.245H104.637L97.8867 196.167L105.234 205.05Z" fill="black"/>
<path d="M60.7451 219.247H66.7471V221.237H62.8164V223.281H66.3164V225.27H62.8164V229.05H60.7451V219.247ZM70.7324 222.036C71.2292 222.036 71.6963 222.128 72.1338 222.31C72.5758 222.492 72.9541 222.743 73.2686 223.062C73.5876 223.376 73.8382 223.757 74.0205 224.203C74.2074 224.645 74.3008 225.117 74.3008 225.618C74.3008 226.288 74.1436 226.897 73.8291 227.444C73.5192 227.99 73.0908 228.419 72.5439 228.729C72.0016 229.034 71.3978 229.187 70.7324 229.187C69.7161 229.187 68.8662 228.847 68.1826 228.168C67.499 227.489 67.1572 226.639 67.1572 225.618C67.1572 224.598 67.499 223.745 68.1826 223.062C68.8662 222.378 69.7161 222.036 70.7324 222.036ZM70.7324 223.923C70.263 223.923 69.8711 224.085 69.5566 224.408C69.2467 224.727 69.0918 225.131 69.0918 225.618C69.0918 226.092 69.2467 226.491 69.5566 226.815C69.8711 227.138 70.263 227.3 70.7324 227.3C71.1927 227.3 71.5801 227.138 71.8945 226.815C72.209 226.491 72.3662 226.092 72.3662 225.618C72.3662 225.131 72.209 224.727 71.8945 224.408C71.5846 224.085 71.1973 223.923 70.7324 223.923ZM77.3838 219.247V229.05H75.4082V219.247H77.3838ZM80.7607 219.247V229.05H78.7852V219.247H80.7607ZM85.375 222.036C85.8717 222.036 86.3389 222.128 86.7764 222.31C87.2184 222.492 87.5967 222.743 87.9111 223.062C88.2301 223.376 88.4808 223.757 88.6631 224.203C88.8499 224.645 88.9434 225.117 88.9434 225.618C88.9434 226.288 88.7861 226.897 88.4717 227.444C88.1618 227.99 87.7334 228.419 87.1865 228.729C86.6442 229.034 86.0404 229.187 85.375 229.187C84.3587 229.187 83.5088 228.847 82.8252 228.168C82.1416 227.489 81.7998 226.639 81.7998 225.618C81.7998 224.598 82.1416 223.745 82.8252 223.062C83.5088 222.378 84.3587 222.036 85.375 222.036ZM85.375 223.923C84.9056 223.923 84.5137 224.085 84.1992 224.408C83.8893 224.727 83.7344 225.131 83.7344 225.618C83.7344 226.092 83.8893 226.491 84.1992 226.815C84.5137 227.138 84.9056 227.3 85.375 227.3C85.8353 227.3 86.2227 227.138 86.5371 226.815C86.8516 226.491 87.0088 226.092 87.0088 225.618C87.0088 225.131 86.8516 224.727 86.5371 224.408C86.2272 224.085 85.8398 223.923 85.375 223.923ZM91.5889 229.05L89.1074 222.173H91.2266L92.375 225.94L93.7285 222.173H95.2871L96.668 225.94L97.8027 222.173H99.9287L97.4541 229.05H95.9023L94.5146 225.283L93.1133 229.05H91.5889ZM106.983 225.311C106.983 225.589 106.965 225.846 106.929 226.083H101.986C102.077 226.548 102.276 226.904 102.581 227.15C102.886 227.391 103.276 227.512 103.75 227.512C104.06 227.512 104.356 227.446 104.639 227.314C104.926 227.182 105.129 227.013 105.247 226.808L106.785 227.751C106.535 228.207 106.138 228.56 105.596 228.811C105.053 229.061 104.424 229.187 103.709 229.187C102.697 229.187 101.84 228.84 101.139 228.148C100.441 227.45 100.093 226.594 100.093 225.577C100.093 224.579 100.437 223.741 101.125 223.062C101.818 222.378 102.665 222.036 103.668 222.036C104.598 222.036 105.382 222.353 106.02 222.987C106.662 223.62 106.983 224.395 106.983 225.311ZM102.014 224.825H105.008C104.967 224.484 104.807 224.199 104.529 223.971C104.251 223.743 103.93 223.629 103.565 223.629C103.155 223.629 102.818 223.734 102.554 223.944C102.289 224.153 102.109 224.447 102.014 224.825ZM111.714 222.036C112.065 222.036 112.345 222.077 112.555 222.159L112.438 224.012C112.147 223.907 111.853 223.855 111.557 223.855C111.311 223.855 111.037 223.95 110.736 224.142C110.44 224.329 110.215 224.579 110.06 224.894V229.05H108.084V222.173H110.06V222.987C110.219 222.704 110.458 222.476 110.777 222.303C111.101 222.125 111.413 222.036 111.714 222.036Z" fill="black"/>
<path d="M156.133 188.245V205.05H152.605V193.12L148.867 196.003V191.749L153.766 188.245H156.133ZM164.723 205.284C163.371 205.284 162.195 204.925 161.195 204.206C160.203 203.48 159.449 202.468 158.934 201.171C158.426 199.874 158.172 198.366 158.172 196.648C158.172 194.921 158.43 193.409 158.945 192.113C159.461 190.816 160.215 189.808 161.207 189.089C162.199 188.37 163.371 188.011 164.723 188.011C166.77 188.011 168.375 188.796 169.539 190.366C170.711 191.929 171.297 194.023 171.297 196.648C171.297 198.366 171.039 199.874 170.523 201.171C170.008 202.468 169.25 203.48 168.25 204.206C167.258 204.925 166.082 205.284 164.723 205.284ZM164.723 201.839C165.66 201.839 166.379 201.409 166.879 200.55C167.387 199.691 167.641 198.39 167.641 196.648C167.641 194.906 167.387 193.609 166.879 192.757C166.379 191.898 165.66 191.468 164.723 191.468C163.793 191.468 163.074 191.898 162.566 192.757C162.066 193.616 161.816 194.913 161.816 196.648C161.816 198.382 162.07 199.683 162.578 200.55C163.086 201.409 163.801 201.839 164.723 201.839ZM178.574 205.238C176.848 205.238 175.426 204.765 174.309 203.82C173.199 202.866 172.645 201.652 172.645 200.175C172.645 199.292 172.895 198.476 173.395 197.726C173.902 196.968 174.574 196.386 175.41 195.98C174.77 195.644 174.25 195.163 173.852 194.538C173.461 193.913 173.266 193.265 173.266 192.593C173.266 191.273 173.762 190.191 174.754 189.347C175.754 188.503 177.027 188.081 178.574 188.081C180.105 188.081 181.367 188.507 182.359 189.359C183.359 190.202 183.859 191.281 183.859 192.593C183.859 193.281 183.66 193.937 183.262 194.562C182.863 195.187 182.34 195.659 181.691 195.98C182.527 196.355 183.195 196.921 183.695 197.679C184.203 198.429 184.457 199.261 184.457 200.175C184.457 201.652 183.906 202.866 182.805 203.82C181.703 204.765 180.293 205.238 178.574 205.238ZM177.098 194.081C177.48 194.402 177.973 194.562 178.574 194.562C179.176 194.562 179.664 194.402 180.039 194.081C180.414 193.753 180.598 193.331 180.59 192.816C180.598 192.3 180.414 191.878 180.039 191.55C179.664 191.222 179.176 191.058 178.574 191.058C177.973 191.058 177.48 191.222 177.098 191.55C176.715 191.878 176.527 192.3 176.535 192.816C176.527 193.331 176.715 193.753 177.098 194.081ZM178.574 202.097C179.309 202.097 179.91 201.89 180.379 201.476C180.855 201.062 181.094 200.527 181.094 199.87C181.094 199.222 180.855 198.687 180.379 198.265C179.91 197.843 179.309 197.632 178.574 197.632C177.832 197.632 177.223 197.843 176.746 198.265C176.27 198.687 176.031 199.222 176.031 199.87C176.031 200.527 176.266 201.062 176.734 201.476C177.211 201.89 177.824 202.097 178.574 202.097ZM198.227 205.05H193.891L189.613 199.765V205.05H186.227V188.245H189.613V198.136L193.691 193.261H197.852L192.953 198.956L198.227 205.05Z" fill="black"/>
<path d="M157.714 226.459C157.554 226.992 157.265 227.466 156.846 227.881C156.431 228.296 155.925 228.617 155.328 228.845C154.731 229.073 154.095 229.187 153.421 229.187C152.496 229.187 151.655 228.966 150.898 228.524C150.142 228.077 149.549 227.469 149.121 226.698C148.693 225.928 148.479 225.078 148.479 224.149C148.479 223.447 148.604 222.786 148.854 222.166C149.11 221.542 149.454 221.006 149.887 220.56C150.324 220.113 150.848 219.76 151.459 219.5C152.074 219.24 152.728 219.111 153.421 219.111C154.414 219.111 155.299 219.35 156.073 219.828C156.853 220.302 157.363 220.913 157.604 221.66L155.759 222.542C155.576 222.109 155.278 221.765 154.863 221.51C154.449 221.255 153.968 221.127 153.421 221.127C152.591 221.127 151.915 221.412 151.391 221.982C150.867 222.551 150.604 223.274 150.604 224.149C150.604 225.019 150.867 225.741 151.391 226.316C151.919 226.89 152.596 227.177 153.421 227.177C154.004 227.177 154.51 227.033 154.938 226.746C155.367 226.459 155.659 226.074 155.813 225.591L157.714 226.459ZM161.945 222.036C162.442 222.036 162.909 222.128 163.347 222.31C163.789 222.492 164.167 222.743 164.481 223.062C164.8 223.376 165.051 223.757 165.233 224.203C165.42 224.645 165.514 225.117 165.514 225.618C165.514 226.288 165.356 226.897 165.042 227.444C164.732 227.99 164.304 228.419 163.757 228.729C163.215 229.034 162.611 229.187 161.945 229.187C160.929 229.187 160.079 228.847 159.396 228.168C158.712 227.489 158.37 226.639 158.37 225.618C158.37 224.598 158.712 223.745 159.396 223.062C160.079 222.378 160.929 222.036 161.945 222.036ZM161.945 223.923C161.476 223.923 161.084 224.085 160.77 224.408C160.46 224.727 160.305 225.131 160.305 225.618C160.305 226.092 160.46 226.491 160.77 226.815C161.084 227.138 161.476 227.3 161.945 227.3C162.406 227.3 162.793 227.138 163.107 226.815C163.422 226.491 163.579 226.092 163.579 225.618C163.579 225.131 163.422 224.727 163.107 224.408C162.798 224.085 162.41 223.923 161.945 223.923ZM170.477 222.036C171.342 222.036 172.024 222.317 172.521 222.877C173.022 223.433 173.272 224.194 173.272 225.16V229.05H171.297V225.495C171.297 225.026 171.178 224.659 170.941 224.395C170.704 224.13 170.381 223.998 169.971 223.998C169.697 223.998 169.435 224.069 169.185 224.21C168.934 224.351 168.738 224.541 168.597 224.778V229.05H166.621V222.173H168.597V222.987C168.784 222.695 169.046 222.465 169.383 222.296C169.725 222.123 170.089 222.036 170.477 222.036ZM178.782 227.218L178.885 228.968C178.62 229.096 178.283 229.159 177.873 229.159C177.053 229.159 176.39 228.913 175.884 228.421C175.382 227.924 175.132 227.239 175.132 226.364V224.053H173.854V222.173H175.132V220.368H177.107V222.173H178.796V224.053H177.107V226.261C177.107 226.575 177.21 226.831 177.415 227.027C177.62 227.218 177.871 227.314 178.167 227.314C178.395 227.314 178.6 227.282 178.782 227.218ZM183.608 222.036C183.959 222.036 184.24 222.077 184.449 222.159L184.333 224.012C184.041 223.907 183.747 223.855 183.451 223.855C183.205 223.855 182.932 223.95 182.631 224.142C182.335 224.329 182.109 224.579 181.954 224.894V229.05H179.979V222.173H181.954V222.987C182.114 222.704 182.353 222.476 182.672 222.303C182.995 222.125 183.308 222.036 183.608 222.036ZM185.529 219.199C185.766 218.962 186.049 218.844 186.377 218.844C186.705 218.844 186.988 218.962 187.225 219.199C187.462 219.432 187.58 219.71 187.58 220.033C187.58 220.362 187.462 220.644 187.225 220.881C186.988 221.118 186.705 221.237 186.377 221.237C186.049 221.237 185.766 221.118 185.529 220.881C185.292 220.644 185.174 220.362 185.174 220.033C185.174 219.71 185.292 219.432 185.529 219.199ZM185.393 222.173H187.368V229.05H185.393V222.173ZM192.885 222.036C193.473 222.036 194.01 222.196 194.498 222.515C194.99 222.829 195.375 223.26 195.653 223.807C195.936 224.354 196.077 224.953 196.077 225.605C196.077 226.256 195.936 226.858 195.653 227.409C195.375 227.956 194.99 228.389 194.498 228.708C194.01 229.027 193.473 229.187 192.885 229.187C192.452 229.187 192.046 229.1 191.668 228.927C191.294 228.749 191.023 228.519 190.854 228.237V229.05H188.879V219.247H190.854V222.987C191.023 222.704 191.294 222.476 191.668 222.303C192.046 222.125 192.452 222.036 192.885 222.036ZM192.454 227.314C192.933 227.314 193.334 227.152 193.657 226.828C193.981 226.5 194.143 226.092 194.143 225.605C194.143 225.117 193.981 224.712 193.657 224.388C193.334 224.06 192.933 223.896 192.454 223.896C192.112 223.896 191.798 223.978 191.511 224.142C191.224 224.306 191.005 224.518 190.854 224.778V226.459C191.005 226.71 191.224 226.915 191.511 227.074C191.802 227.234 192.117 227.314 192.454 227.314ZM201.854 222.173H203.829V229.05H201.854V228.237C201.658 228.528 201.391 228.761 201.054 228.934C200.721 229.102 200.363 229.187 199.98 229.187C199.11 229.187 198.424 228.909 197.923 228.353C197.426 227.797 197.178 227.031 197.178 226.056V222.173H199.153V225.735C199.153 226.204 199.272 226.569 199.509 226.828C199.75 227.088 200.076 227.218 200.486 227.218C200.755 227.218 201.013 227.15 201.259 227.013C201.509 226.872 201.708 226.683 201.854 226.446V222.173ZM209.571 227.218L209.674 228.968C209.41 229.096 209.072 229.159 208.662 229.159C207.842 229.159 207.179 228.913 206.673 228.421C206.172 227.924 205.921 227.239 205.921 226.364V224.053H204.643V222.173H205.921V220.368H207.896V222.173H209.585V224.053H207.896V226.261C207.896 226.575 207.999 226.831 208.204 227.027C208.409 227.218 208.66 227.314 208.956 227.314C209.184 227.314 209.389 227.282 209.571 227.218ZM210.904 219.199C211.141 218.962 211.424 218.844 211.752 218.844C212.08 218.844 212.363 218.962 212.6 219.199C212.837 219.432 212.955 219.71 212.955 220.033C212.955 220.362 212.837 220.644 212.6 220.881C212.363 221.118 212.08 221.237 211.752 221.237C211.424 221.237 211.141 221.118 210.904 220.881C210.667 220.644 210.549 220.362 210.549 220.033C210.549 219.71 210.667 219.432 210.904 219.199ZM210.768 222.173H212.743V229.05H210.768V222.173ZM217.426 222.036C217.923 222.036 218.39 222.128 218.827 222.31C219.269 222.492 219.647 222.743 219.962 223.062C220.281 223.376 220.532 223.757 220.714 224.203C220.901 224.645 220.994 225.117 220.994 225.618C220.994 226.288 220.837 226.897 220.522 227.444C220.213 227.99 219.784 228.419 219.237 228.729C218.695 229.034 218.091 229.187 217.426 229.187C216.41 229.187 215.56 228.847 214.876 228.168C214.192 227.489 213.851 226.639 213.851 225.618C213.851 224.598 214.192 223.745 214.876 223.062C215.56 222.378 216.41 222.036 217.426 222.036ZM217.426 223.923C216.956 223.923 216.564 224.085 216.25 224.408C215.94 224.727 215.785 225.131 215.785 225.618C215.785 226.092 215.94 226.491 216.25 226.815C216.564 227.138 216.956 227.3 217.426 227.3C217.886 227.3 218.273 227.138 218.588 226.815C218.902 226.491 219.06 226.092 219.06 225.618C219.06 225.131 218.902 224.727 218.588 224.408C218.278 224.085 217.891 223.923 217.426 223.923ZM225.957 222.036C226.823 222.036 227.504 222.317 228.001 222.877C228.502 223.433 228.753 224.194 228.753 225.16V229.05H226.777V225.495C226.777 225.026 226.659 224.659 226.422 224.395C226.185 224.13 225.861 223.998 225.451 223.998C225.178 223.998 224.916 224.069 224.665 224.21C224.414 224.351 224.218 224.541 224.077 224.778V229.05H222.102V222.173H224.077V222.987C224.264 222.695 224.526 222.465 224.863 222.296C225.205 222.123 225.57 222.036 225.957 222.036Z" fill="black"/>
<path d="M60.2119 260.247H61.6543L64.4912 267.938L67.335 260.247H68.75L65.0518 270.05H63.917L60.2119 260.247ZM70.1787 260.152C70.4111 260.152 70.6139 260.238 70.7871 260.411C70.9603 260.585 71.0469 260.787 71.0469 261.02C71.0469 261.257 70.9603 261.462 70.7871 261.635C70.6139 261.804 70.4111 261.888 70.1787 261.888C69.9372 261.888 69.7321 261.804 69.5635 261.635C69.3949 261.466 69.3105 261.261 69.3105 261.02C69.3105 260.787 69.3949 260.585 69.5635 260.411C69.7367 260.238 69.9417 260.152 70.1787 260.152ZM69.5225 263.221H70.8281V270.05H69.5225V263.221ZM74.9912 270.187C74.458 270.187 73.9316 270.098 73.4121 269.92C72.8971 269.742 72.4756 269.505 72.1475 269.209L72.6807 268.245C72.945 268.501 73.2936 268.71 73.7266 268.874C74.1595 269.034 74.5765 269.114 74.9775 269.114C75.3695 269.114 75.6885 269.027 75.9346 268.854C76.1852 268.676 76.3105 268.455 76.3105 268.191C76.3105 267.986 76.2376 267.815 76.0918 267.678C75.946 267.541 75.7568 267.436 75.5244 267.364C75.292 267.286 75.0345 267.218 74.752 267.158C74.474 267.095 74.1937 267.019 73.9111 266.933C73.6331 266.842 73.3779 266.732 73.1455 266.605C72.9131 266.473 72.724 266.286 72.5781 266.044C72.4323 265.798 72.3594 265.504 72.3594 265.162C72.3594 264.543 72.5986 264.041 73.0771 263.658C73.5557 263.271 74.18 263.077 74.9502 263.077C75.4287 263.077 75.889 263.153 76.3311 263.303C76.7777 263.453 77.1445 263.668 77.4316 263.946L76.8711 264.923C76.6341 264.691 76.3174 264.508 75.9209 264.376C75.5244 264.24 75.1598 264.171 74.8271 264.171C74.4717 264.171 74.1868 264.253 73.9727 264.417C73.7585 264.577 73.6514 264.789 73.6514 265.053C73.6514 265.24 73.7243 265.397 73.8701 265.525C74.016 265.648 74.2051 265.748 74.4375 265.825C74.6699 265.898 74.9251 265.969 75.2031 266.037C75.4857 266.101 75.7682 266.183 76.0508 266.283C76.3333 266.379 76.5908 266.498 76.8232 266.639C77.0557 266.78 77.2448 266.978 77.3906 267.234C77.5365 267.489 77.6094 267.792 77.6094 268.143C77.6094 268.735 77.3656 269.225 76.8779 269.613C76.3903 269.995 75.7614 270.187 74.9912 270.187ZM79.6807 260.152C79.9131 260.152 80.1159 260.238 80.2891 260.411C80.4622 260.585 80.5488 260.787 80.5488 261.02C80.5488 261.257 80.4622 261.462 80.2891 261.635C80.1159 261.804 79.9131 261.888 79.6807 261.888C79.4391 261.888 79.234 261.804 79.0654 261.635C78.8968 261.466 78.8125 261.261 78.8125 261.02C78.8125 260.787 78.8968 260.585 79.0654 260.411C79.2386 260.238 79.4437 260.152 79.6807 260.152ZM79.0244 263.221H80.3301V270.05H79.0244V263.221ZM85.8672 268.861L85.9355 269.995C85.7168 270.087 85.4707 270.132 85.1973 270.132C84.459 270.132 83.862 269.909 83.4062 269.462C82.9551 269.011 82.7295 268.387 82.7295 267.589V264.451H81.4033V263.221H82.7295V261.368H84.0215V263.221H85.8672V264.451H84.0215V267.528C84.0215 267.961 84.1468 268.302 84.3975 268.553C84.6481 268.804 84.9694 268.929 85.3613 268.929C85.5482 268.929 85.7168 268.906 85.8672 268.861ZM102.185 260.247H103.613L100.339 270.05H99.1904L96.709 262.435L94.2344 270.05H93.0859L89.7979 260.247H91.2266L93.6875 267.869L96.1689 260.247H97.3105L99.7646 267.883L102.185 260.247ZM110.005 266.338C110.005 266.466 109.996 266.643 109.978 266.871H104.516C104.575 267.528 104.812 268.052 105.227 268.444C105.646 268.831 106.17 269.025 106.799 269.025C107.232 269.025 107.628 268.934 107.988 268.751C108.348 268.569 108.615 268.325 108.788 268.02L109.82 268.69C109.561 269.155 109.16 269.521 108.617 269.79C108.075 270.055 107.455 270.187 106.758 270.187C106.279 270.187 105.824 270.096 105.391 269.913C104.958 269.731 104.584 269.483 104.27 269.168C103.96 268.849 103.714 268.469 103.531 268.027C103.349 267.58 103.258 267.106 103.258 266.605C103.258 265.958 103.41 265.365 103.716 264.827C104.021 264.285 104.44 263.859 104.974 263.549C105.511 263.235 106.102 263.077 106.744 263.077C107.66 263.077 108.433 263.392 109.062 264.021C109.69 264.65 110.005 265.422 110.005 266.338ZM104.57 265.894H108.672C108.631 265.383 108.426 264.966 108.057 264.643C107.688 264.319 107.232 264.157 106.689 264.157C106.152 264.157 105.694 264.315 105.315 264.629C104.937 264.944 104.689 265.365 104.57 265.894ZM115.009 263.077C115.629 263.077 116.194 263.235 116.704 263.549C117.215 263.859 117.616 264.287 117.907 264.834C118.199 265.377 118.345 265.976 118.345 266.632C118.345 267.288 118.199 267.89 117.907 268.437C117.616 268.979 117.215 269.407 116.704 269.722C116.194 270.032 115.629 270.187 115.009 270.187C114.539 270.187 114.09 270.08 113.662 269.865C113.234 269.651 112.924 269.382 112.732 269.059V270.05H111.427V260.247H112.732V264.212C112.915 263.889 113.22 263.62 113.648 263.406C114.081 263.187 114.535 263.077 115.009 263.077ZM114.756 268.97C115.417 268.97 115.968 268.747 116.41 268.3C116.857 267.853 117.08 267.297 117.08 266.632C117.08 265.962 116.857 265.406 116.41 264.964C115.968 264.517 115.417 264.294 114.756 264.294C114.337 264.294 113.94 264.401 113.566 264.615C113.193 264.83 112.915 265.105 112.732 265.443V267.835C112.915 268.168 113.193 268.441 113.566 268.656C113.945 268.865 114.341 268.97 114.756 268.97ZM122.104 270.187C121.571 270.187 121.045 270.098 120.525 269.92C120.01 269.742 119.589 269.505 119.261 269.209L119.794 268.245C120.058 268.501 120.407 268.71 120.84 268.874C121.273 269.034 121.69 269.114 122.091 269.114C122.483 269.114 122.802 269.027 123.048 268.854C123.299 268.676 123.424 268.455 123.424 268.191C123.424 267.986 123.351 267.815 123.205 267.678C123.059 267.541 122.87 267.436 122.638 267.364C122.405 267.286 122.148 267.218 121.865 267.158C121.587 267.095 121.307 267.019 121.024 266.933C120.746 266.842 120.491 266.732 120.259 266.605C120.026 266.473 119.837 266.286 119.691 266.044C119.546 265.798 119.473 265.504 119.473 265.162C119.473 264.543 119.712 264.041 120.19 263.658C120.669 263.271 121.293 263.077 122.063 263.077C122.542 263.077 123.002 263.153 123.444 263.303C123.891 263.453 124.258 263.668 124.545 263.946L123.984 264.923C123.747 264.691 123.431 264.508 123.034 264.376C122.638 264.24 122.273 264.171 121.94 264.171C121.585 264.171 121.3 264.253 121.086 264.417C120.872 264.577 120.765 264.789 120.765 265.053C120.765 265.24 120.838 265.397 120.983 265.525C121.129 265.648 121.318 265.748 121.551 265.825C121.783 265.898 122.038 265.969 122.316 266.037C122.599 266.101 122.882 266.183 123.164 266.283C123.447 266.379 123.704 266.498 123.937 266.639C124.169 266.78 124.358 266.978 124.504 267.234C124.65 267.489 124.723 267.792 124.723 268.143C124.723 268.735 124.479 269.225 123.991 269.613C123.504 269.995 122.875 270.187 122.104 270.187ZM126.794 260.152C127.026 260.152 127.229 260.238 127.402 260.411C127.576 260.585 127.662 260.787 127.662 261.02C127.662 261.257 127.576 261.462 127.402 261.635C127.229 261.804 127.026 261.888 126.794 261.888C126.552 261.888 126.347 261.804 126.179 261.635C126.01 261.466 125.926 261.261 125.926 261.02C125.926 260.787 126.01 260.585 126.179 260.411C126.352 260.238 126.557 260.152 126.794 260.152ZM126.138 263.221H127.443V270.05H126.138V263.221ZM132.98 268.861L133.049 269.995C132.83 270.087 132.584 270.132 132.311 270.132C131.572 270.132 130.975 269.909 130.52 269.462C130.068 269.011 129.843 268.387 129.843 267.589V264.451H128.517V263.221H129.843V261.368H131.135V263.221H132.98V264.451H131.135V267.528C131.135 267.961 131.26 268.302 131.511 268.553C131.761 268.804 132.083 268.929 132.475 268.929C132.661 268.929 132.83 268.906 132.98 268.861ZM140.343 266.338C140.343 266.466 140.334 266.643 140.315 266.871H134.854C134.913 267.528 135.15 268.052 135.564 268.444C135.984 268.831 136.508 269.025 137.137 269.025C137.57 269.025 137.966 268.934 138.326 268.751C138.686 268.569 138.953 268.325 139.126 268.02L140.158 268.69C139.898 269.155 139.497 269.521 138.955 269.79C138.413 270.055 137.793 270.187 137.096 270.187C136.617 270.187 136.161 270.096 135.729 269.913C135.296 269.731 134.922 269.483 134.607 269.168C134.298 268.849 134.051 268.469 133.869 268.027C133.687 267.58 133.596 267.106 133.596 266.605C133.596 265.958 133.748 265.365 134.054 264.827C134.359 264.285 134.778 263.859 135.312 263.549C135.849 263.235 136.439 263.077 137.082 263.077C137.998 263.077 138.771 263.392 139.399 264.021C140.028 264.65 140.343 265.422 140.343 266.338ZM134.908 265.894H139.01C138.969 265.383 138.764 264.966 138.395 264.643C138.025 264.319 137.57 264.157 137.027 264.157C136.49 264.157 136.032 264.315 135.653 264.629C135.275 264.944 135.027 265.365 134.908 265.894Z" fill="black"/>
<a href="https://petai.org/">
<rect fill="black" fill-opacity="0" y="0.0986328" width="80.8691" height="16.8027"/>
</a>
<path d="M166.424 261.745L171.229 266.55L166.424 271.355" stroke="#292D32" stroke-width="1.5" stroke-miterlimit="10" stroke-linecap="round" stroke-linejoin="round"/>
<path d="M157.771 266.55H171.095" stroke="#292D32" stroke-width="1.5" stroke-miterlimit="10" stroke-linecap="round" stroke-linejoin="round"/>
</svg>
