<svg width="234" height="218" viewBox="0 0 234 218" fill="none" xmlns="http://www.w3.org/2000/svg">
<rect y="0.0500488" width="234" height="217" rx="2" fill="white"/>
<path opacity="0.4" d="M154.917 65.3833V96.4371C154.917 110.239 146.689 118.467 132.887 118.467H101.113C87.3112 118.467 79.0833 110.239 79.0833 96.4371V65.4212L154.917 65.3833Z" fill="#004CA8"/>
<path d="M105.629 102.352C105.211 102.352 104.756 102.238 104.377 102.048C101.458 100.569 98.9552 98.3703 97.1352 95.6403C95.6185 93.3653 95.6185 90.4457 97.1352 88.1707C98.9552 85.4407 101.458 83.2416 104.377 81.8007C105.78 81.0803 107.486 81.687 108.207 83.0899C108.927 84.4928 108.359 86.1991 106.918 86.9195C104.87 87.9433 103.126 89.4978 101.875 91.3937C101.647 91.7349 101.647 92.1899 101.875 92.5691C103.126 94.4649 104.87 96.0195 106.918 97.0432C108.321 97.7637 108.889 99.4699 108.207 100.873C107.676 101.783 106.652 102.352 105.629 102.352Z" fill="#004CA8"/>
<path d="M129.168 102.352C128.107 102.352 127.121 101.783 126.628 100.797C125.907 99.3942 126.476 97.688 127.917 96.9676C129.964 95.9438 131.709 94.3892 132.96 92.4934C133.187 92.1522 133.187 91.6972 132.96 91.318C131.709 89.4222 129.964 87.8676 127.917 86.8438C126.514 86.1234 125.945 84.4172 126.628 83.0142C127.348 81.6113 129.054 81.0426 130.457 81.7251C133.377 83.2038 135.879 85.403 137.699 88.133C139.216 90.408 139.216 93.3276 137.699 95.6026C135.879 98.3326 133.377 100.532 130.457 101.973C130.002 102.238 129.585 102.352 129.168 102.352Z" fill="#004CA8"/>
<path d="M154.917 64.6629V65.3833L79.0833 65.4212V64.6629C79.0833 50.8612 87.3112 42.6333 101.113 42.6333H132.887C146.689 42.6333 154.917 50.8612 154.917 64.6629Z" fill="#004CA8"/>
<path d="M56.6758 171.749C56.2383 173.093 55.3477 174.187 54.0039 175.031C52.6602 175.866 51.1289 176.284 49.4102 176.284C48.2148 176.284 47.0938 176.062 46.0469 175.616C45 175.171 44.1055 174.566 43.3633 173.8C42.6211 173.027 42.0352 172.109 41.6055 171.046C41.1758 169.976 40.9609 168.835 40.9609 167.624C40.9609 166.421 41.1758 165.288 41.6055 164.226C42.0352 163.163 42.6211 162.249 43.3633 161.484C44.1055 160.718 45 160.116 46.0469 159.679C47.0938 159.234 48.2148 159.011 49.4102 159.011C51.0664 159.011 52.5469 159.398 53.8516 160.171C55.1641 160.945 56.0508 161.948 56.5117 163.183L53.9922 164.413C53.6328 163.601 53.0391 162.952 52.2109 162.468C51.3906 161.984 50.457 161.741 49.4102 161.741C47.7852 161.741 46.4531 162.296 45.4141 163.406C44.3828 164.515 43.8672 165.921 43.8672 167.624C43.8672 169.327 44.3828 170.741 45.4141 171.866C46.4531 172.991 47.7852 173.554 49.4102 173.554C50.5352 173.554 51.5234 173.288 52.375 172.757C53.2266 172.226 53.8125 171.507 54.1328 170.601L56.6758 171.749ZM62.5 160.136C63.8047 159.386 65.2539 159.011 66.8477 159.011C68.4414 159.011 69.8867 159.386 71.1836 160.136C72.4883 160.886 73.5117 161.921 74.2539 163.241C74.9961 164.554 75.3672 166.015 75.3672 167.624C75.3672 169.241 74.9961 170.714 74.2539 172.042C73.5117 173.363 72.4883 174.402 71.1836 175.159C69.8867 175.909 68.4414 176.284 66.8477 176.284C65.2539 176.284 63.8047 175.909 62.5 175.159C61.1953 174.402 60.168 173.363 59.418 172.042C58.6758 170.714 58.3047 169.241 58.3047 167.624C58.3047 166.015 58.6758 164.554 59.418 163.241C60.168 161.921 61.1953 160.886 62.5 160.136ZM66.8477 161.741C65.2461 161.741 63.9062 162.304 62.8281 163.429C61.75 164.554 61.2109 165.952 61.2109 167.624C61.2109 169.304 61.75 170.714 62.8281 171.855C63.9062 172.988 65.2461 173.554 66.8477 173.554C68.4414 173.554 69.7773 172.988 70.8555 171.855C71.9414 170.714 72.4844 169.304 72.4844 167.624C72.4844 165.952 71.9414 164.554 70.8555 163.429C69.7773 162.304 68.4414 161.741 66.8477 161.741ZM83.3828 159.245C84.5625 159.245 85.6719 159.456 86.7109 159.878C87.75 160.3 88.6406 160.878 89.3828 161.613C90.125 162.339 90.7109 163.222 91.1406 164.261C91.5703 165.292 91.7852 166.398 91.7852 167.577C91.7852 168.773 91.5703 169.898 91.1406 170.952C90.7109 171.999 90.125 172.898 89.3828 173.648C88.6406 174.39 87.75 174.976 86.7109 175.406C85.6719 175.835 84.5625 176.05 83.3828 176.05H77.8633V159.245H83.3828ZM83.5703 173.366C85.0938 173.366 86.3633 172.816 87.3789 171.714C88.3945 170.613 88.9023 169.234 88.9023 167.577C88.9023 165.937 88.3984 164.589 87.3906 163.534C86.3828 162.472 85.1094 161.941 83.5703 161.941H80.6758V173.366H83.5703ZM94.2695 159.245H104.184V161.941H97.082V165.902H103.41V168.585H97.082V173.366H104.184V176.05H94.2695V159.245ZM117.602 159.245C118.781 159.245 119.891 159.456 120.93 159.878C121.969 160.3 122.859 160.878 123.602 161.613C124.344 162.339 124.93 163.222 125.359 164.261C125.789 165.292 126.004 166.398 126.004 167.577C126.004 168.773 125.789 169.898 125.359 170.952C124.93 171.999 124.344 172.898 123.602 173.648C122.859 174.39 121.969 174.976 120.93 175.406C119.891 175.835 118.781 176.05 117.602 176.05H112.082V159.245H117.602ZM117.789 173.366C119.312 173.366 120.582 172.816 121.598 171.714C122.613 170.613 123.121 169.234 123.121 167.577C123.121 165.937 122.617 164.589 121.609 163.534C120.602 162.472 119.328 161.941 117.789 161.941H114.895V173.366H117.789ZM128.488 159.245H138.402V161.941H131.301V165.902H137.629V168.585H131.301V173.366H138.402V176.05H128.488V159.245ZM146.5 159.011C147.57 159.011 148.645 159.241 149.723 159.702C150.801 160.156 151.629 160.726 152.207 161.413L150.578 163.593C150.016 163.015 149.348 162.558 148.574 162.222C147.809 161.886 147.047 161.718 146.289 161.718C145.516 161.718 144.883 161.894 144.391 162.245C143.906 162.597 143.664 163.054 143.664 163.616C143.664 163.999 143.766 164.335 143.969 164.624C144.172 164.906 144.445 165.14 144.789 165.327C145.141 165.507 145.539 165.671 145.984 165.82C146.43 165.968 146.898 166.113 147.391 166.253C147.891 166.394 148.387 166.546 148.879 166.71C149.379 166.874 149.852 167.081 150.297 167.331C150.742 167.581 151.137 167.87 151.48 168.198C151.832 168.527 152.109 168.948 152.312 169.464C152.516 169.972 152.617 170.55 152.617 171.198C152.617 171.87 152.477 172.515 152.195 173.132C151.922 173.741 151.531 174.281 151.023 174.749C150.523 175.218 149.891 175.593 149.125 175.874C148.359 176.148 147.523 176.284 146.617 176.284C145.367 176.284 144.133 176.015 142.914 175.476C141.703 174.937 140.723 174.249 139.973 173.413L141.777 171.351C142.512 172.054 143.262 172.601 144.027 172.991C144.801 173.382 145.664 173.577 146.617 173.577C147.547 173.577 148.297 173.363 148.867 172.933C149.445 172.495 149.734 171.925 149.734 171.222C149.734 170.855 149.633 170.534 149.43 170.261C149.227 169.988 148.953 169.765 148.609 169.593C148.266 169.421 147.871 169.265 147.426 169.124C146.98 168.984 146.512 168.851 146.02 168.726C145.527 168.593 145.035 168.448 144.543 168.292C144.059 168.136 143.594 167.937 143.148 167.695C142.703 167.452 142.309 167.167 141.965 166.839C141.621 166.511 141.348 166.093 141.145 165.585C140.941 165.077 140.84 164.495 140.84 163.839C140.84 162.464 141.371 161.316 142.434 160.394C143.496 159.472 144.852 159.011 146.5 159.011ZM154.996 159.245H157.809V176.05H154.996V159.245ZM168.895 169.183V166.499H175.715V173.12C174.949 174.113 173.969 174.886 172.773 175.441C171.578 175.988 170.246 176.261 168.777 176.261C167.199 176.261 165.762 175.878 164.465 175.113C163.168 174.347 162.148 173.3 161.406 171.972C160.672 170.644 160.305 169.179 160.305 167.577C160.305 165.976 160.672 164.523 161.406 163.218C162.141 161.906 163.152 160.878 164.441 160.136C165.738 159.386 167.176 159.011 168.754 159.011C170.41 159.011 171.891 159.398 173.195 160.171C174.508 160.945 175.387 161.948 175.832 163.183L173.336 164.413C172.961 163.601 172.363 162.952 171.543 162.468C170.73 161.984 169.801 161.741 168.754 161.741C167.137 161.741 165.809 162.288 164.77 163.382C163.73 164.468 163.211 165.866 163.211 167.577C163.211 169.312 163.734 170.741 164.781 171.866C165.836 172.991 167.168 173.554 168.777 173.554C170.465 173.554 171.84 173.097 172.902 172.183V169.183H168.895ZM178.645 159.245H181.094L189.039 170.624V159.245H191.875V176.05H189.449L181.457 164.671V176.05H178.645V159.245Z" fill="#004CA8"/>
</svg>
