<svg width="47" height="48" viewBox="0 0 47 48" fill="none" xmlns="http://www.w3.org/2000/svg">
<g id="dribbble">
<g id="vuesax/linear/dribbble">
<g id="dribbble_2">
<path id="Vector" d="M36.2292 9.43042C31.1375 18.3408 21.3263 23.4521 11.1038 22.5317L4.89587 21.9638" stroke="white" stroke-width="1.5" stroke-miterlimit="10" stroke-linecap="round" stroke-linejoin="round"/>
<path id="Vector_2" d="M10.7709 37.983C15.8625 29.0726 25.6738 23.9613 35.8963 24.8817L42.1042 25.4497" stroke="white" stroke-width="1.5" stroke-miterlimit="10" stroke-linecap="round" stroke-linejoin="round"/>
<path id="Vector_3" d="M23.5 43.1335C34.3155 43.1335 43.0833 34.3657 43.0833 23.5501C43.0833 12.7346 34.3155 3.9668 23.5 3.9668C12.6844 3.9668 3.91663 12.7346 3.91663 23.5501C3.91663 34.3657 12.6844 43.1335 23.5 43.1335Z" stroke="white" stroke-width="1.5" stroke-miterlimit="10" stroke-linecap="round" stroke-linejoin="round"/>
<path id="Vector_4" d="M14.9421 5.92505L21.1696 13.6605C25.3409 18.8305 28.298 24.8425 29.8646 31.2855L32.2342 41.0575" stroke="white" stroke-width="1.5" stroke-miterlimit="10" stroke-linecap="round" stroke-linejoin="round"/>
</g>
</g>
</g>
</svg>
