<svg width="47" height="48" viewBox="0 0 47 48" fill="none" xmlns="http://www.w3.org/2000/svg">
<g id="figma">
<g id="vuesax/linear/figma">
<g id="figma_2">
<path id="Vector" d="M23.5 3.9668H17.0375C13.3166 3.9668 10.3792 6.9043 10.3792 10.4293C10.3792 13.9543 13.3167 16.8918 16.8417 16.8918H23.5V3.9668Z" stroke="white" stroke-width="1.5" stroke-miterlimit="10"/>
<path id="Vector_2" d="M23.5 17.0876H17.0375C13.5125 17.0876 10.575 20.0251 10.575 23.5501C10.575 27.0751 13.5125 30.0126 17.0375 30.0126H23.5V17.0876Z" stroke="white" stroke-width="1.5" stroke-miterlimit="10"/>
<path id="Vector_3" d="M23.5 30.0125H17.0375C13.5125 30.0125 10.575 32.95 10.575 36.475C10.575 40 13.5125 42.9375 17.0375 42.9375C20.5625 42.9375 23.5 40 23.5 36.475V30.0125Z" stroke="white" stroke-width="1.5" stroke-miterlimit="10"/>
<path id="Vector_4" d="M23.5 3.9668H29.9625C33.4875 3.9668 36.425 6.9043 36.425 10.4293C36.425 13.9543 33.4875 16.8918 29.9625 16.8918H23.5V3.9668Z" stroke="white" stroke-width="1.5" stroke-miterlimit="10"/>
<path id="Vector_5" d="M29.9625 17.0876C33.4875 17.0876 36.425 20.0251 36.425 23.5501C36.425 27.0751 33.4875 30.0126 29.9625 30.0126C26.4375 30.0126 23.5 27.0751 23.5 23.5501C23.5 20.0251 26.4375 17.0876 29.9625 17.0876Z" stroke="white" stroke-width="1.5" stroke-miterlimit="10"/>
</g>
</g>
</g>
</svg>
