<svg width="47" height="48" viewBox="0 0 47 48" fill="none" xmlns="http://www.w3.org/2000/svg">
<g id="be">
<g id="vuesax/linear/be">
<g id="be_2">
<path id="Vector" d="M3.91663 23.55H17.625C20.9541 23.55 23.5 26.0959 23.5 29.425C23.5 32.7542 20.9541 35.3 17.625 35.3H5.87496C4.69996 35.3 3.91663 34.5167 3.91663 33.3417V13.7584C3.91663 12.5834 4.69996 11.8 5.87496 11.8H15.6666C18.9958 11.8 21.5416 14.3459 21.5416 17.675C21.5416 21.0042 18.9958 23.55 15.6666 23.55H3.91663Z" stroke="white" stroke-width="1.5" stroke-miterlimit="10"/>
<path id="Vector_2" d="M27.4166 27.4666H43.0833C43.0833 23.1583 39.5583 19.6333 35.25 19.6333C30.9416 19.6333 27.4166 23.1583 27.4166 27.4666ZM27.4166 27.4666C27.4166 31.775 30.9416 35.3 35.25 35.3H38.5791" stroke="white" stroke-width="1.5" stroke-miterlimit="10" stroke-linecap="round" stroke-linejoin="round"/>
<path id="Vector_3" d="M38.1875 14.7375H32.3125" stroke="white" stroke-width="1.5" stroke-miterlimit="10" stroke-linecap="round" stroke-linejoin="round"/>
</g>
</g>
</g>
</svg>
