<svg width="68" height="68" viewBox="0 0 68 68" fill="none" xmlns="http://www.w3.org/2000/svg">
<g id="logos" clip-path="url(#clip0_64_355)">
<g id="OBJECTS">
<path id="Vector" d="M21.1319 55.6936H17.7714V19.1321H0V68H33.071L26.2371 58.2121C25.7006 57.4404 24.9495 56.8036 24.0556 56.3626C23.1617 55.9217 22.155 55.6913 21.1319 55.6936Z" fill="white"/>
<path id="Vector_2" d="M50.7779 46.149C60.7622 42.3569 66.5783 34.8729 66.5783 24.6843C66.5783 9.41582 53.7344 0 33.2326 0H0V12.8788H33.9273C43.6208 13.3367 48.4676 17.6296 48.4676 24.6843C48.4676 29.4781 46.1573 33.0412 41.569 34.9588C39.3323 35.8212 37.4243 37.2375 36.0745 39.0372C34.7246 40.837 33.9902 42.9438 33.9596 45.1044V45.7197C33.9919 47.9044 34.7567 50.0312 36.1568 51.83L48.8068 68.0143H68L50.7779 46.149Z" fill="white"/>
<path id="Vector_3" d="M17.7714 0H0V12.8215H17.7714V0Z" fill="#2369ED"/>
</g>
</g>
<defs>
<clipPath id="clip0_64_355">
<rect width="68" height="68" fill="white"/>
</clipPath>
</defs>
</svg>
